<svg width="135" height="50" viewBox="0 0 135 50" fill="none" xmlns="http://www.w3.org/2000/svg">
<path d="M56.0792 41.9536C56.6895 41.9537 56.8134 42.6502 56.4888 43.6961C56.2113 44.5843 55.793 45.2323 55.1865 45.7547C54.6673 46.2109 54.2444 46.311 53.9464 46.311C53.2713 46.3113 53.0873 45.714 53.3844 44.759C53.6013 44.0617 54.0343 43.3478 54.6015 42.7841C55.2629 42.1283 55.6878 41.9536 56.0792 41.9536Z" fill="white"/>
<path d="M73.5023 41.9536C74.1123 41.9537 74.2359 42.6502 73.9106 43.6961C73.6342 44.5843 73.2149 45.2323 72.6094 45.7547C72.0903 46.2108 71.6675 46.3109 71.3694 46.311C70.6948 46.3114 70.5103 45.7141 70.8076 44.759C71.0241 44.0617 71.4569 43.3478 72.0248 42.7841C72.6862 42.1284 73.1102 41.9537 73.5023 41.9536Z" fill="white"/>
<path d="M64.2854 42.1363C64.8736 42.1364 65.0977 42.6764 64.8859 43.3558C64.7054 43.9381 64.2572 44.7002 63.5491 45.2733C63.016 45.7057 62.2362 46.0623 61.7723 46.154L62.8985 42.5349C63.2337 42.3436 63.7779 42.1364 64.2854 42.1363Z" fill="white"/>
<path d="M51.8438 42.2103C52.0908 42.2103 52.1902 42.3353 52.1276 42.5349C52.0761 42.7014 51.9072 42.9417 51.5565 43.1819C51.1412 43.4645 50.4944 43.7468 49.9228 43.9291L50.3001 42.7175C50.8012 42.4349 51.4084 42.2103 51.8438 42.2103Z" fill="white"/>
<path d="M59.5701 42.568C59.5132 43.0075 59.5416 43.6633 59.5733 44.1439L58.4887 44.2033C58.7598 43.797 59.1261 43.2728 59.556 42.568H59.5701Z" fill="white"/>
<path d="M85.0027 33.3944H80.5421L82.7828 25.231L85.0027 33.3944Z" fill="white"/>
<path d="M62.611 8.30248L62.6111 8.30275C62.6063 8.29916 62.603 8.29657 62.6023 8.29609L62.611 8.30248Z" fill="white"/>
<path d="M68.5747 5.14689C68.7299 5.1497 70.1061 5.34838 70.2776 5.44006C70.2818 5.44301 70.4585 5.55211 70.5127 5.58638C70.5146 5.588 70.5183 5.59228 70.5186 5.59265C70.5855 5.66765 70.6017 5.70171 70.6045 5.71644L70.6259 5.72311L70.3064 5.74376C69.4499 5.79521 68.2762 5.86625 66.8788 6.49708C64.9678 7.36069 64.64 7.609 64.4231 7.77384C64.2977 7.86909 64.2148 7.93194 63.7988 8.10073C63.7367 8.12556 63.5675 8.14663 63.3914 8.15536C63.8369 7.93362 64.5344 7.53753 65.4633 6.85088C66.0827 6.39321 66.3825 6.02916 66.6014 5.76389C66.9042 5.39505 67.0447 5.22665 67.7291 5.13263C67.7607 5.13306 68.5747 5.14689 68.5747 5.14689Z" fill="white"/>
<path d="M63.3885 6.52706C63.1422 6.58792 62.9725 6.73703 62.947 7.14859L62.9542 7.46548C62.9586 7.53343 62.9645 7.63086 62.9645 7.71734C62.9645 7.79235 62.9585 7.85574 62.9454 7.88738C62.9058 7.90636 62.8054 7.95387 62.7318 7.98892C62.6431 7.9585 62.455 7.88565 62.1281 7.67856C61.8431 7.49644 61.6543 7.29364 61.6234 7.13633C61.6206 7.12175 61.6194 7.10773 61.6194 7.09315C61.6194 7.05126 61.6328 7.01293 61.6614 6.97295C61.7169 6.89436 61.7801 6.87493 61.9187 6.83809L62.1051 6.78199L62.4062 6.69737C62.4094 6.69659 62.5728 6.65665 62.5895 6.65233C63.1058 6.55041 63.2745 6.53498 63.3885 6.52706Z" fill="white"/>
<path d="M63.7838 6.84129C63.7564 6.86813 63.7316 6.89904 63.7105 6.93511L63.5617 7.18896L63.8554 7.20602C63.9131 7.20916 63.9524 7.21273 63.9839 7.21668C63.9835 7.25491 63.9831 7.29741 63.9831 7.2985L64.1707 7.27039L64.2341 7.26039C63.8678 7.4927 63.5619 7.66365 63.3232 7.78677C63.3282 7.67897 63.3215 7.56128 63.3147 7.44509L63.3068 7.17124C63.3249 6.87765 63.3616 6.86123 63.7838 6.84129Z" fill="white"/>
<path d="M64.1024 6.65006C64.1356 6.65591 64.159 6.65682 64.1848 6.65886C64.1856 6.6659 64.1857 6.67233 64.1872 6.67938C64.1367 6.68565 64.087 6.69429 64.0396 6.70656L64.031 6.63487L64.1024 6.65006Z" fill="white"/>
<path d="M65.847 3.22955C66.3781 3.13352 66.6756 3.53001 67.0675 4.14651C67.2004 4.35443 67.3296 4.55399 67.4744 4.71566C67.3826 4.72439 67.2924 4.73626 67.1756 4.77377C66.9479 4.84691 66.8307 4.92985 66.6439 5.07053C66.486 5.18993 66.3969 5.29192 66.2944 5.40968L66.1875 5.53055C66.1867 5.53153 66.0436 5.70299 66.0436 5.70299C66.0411 5.7058 65.8876 5.88282 65.8845 5.88675C65.8702 5.90017 65.4933 6.23781 65.4911 6.23976C65.3169 6.39749 65.1344 6.56154 64.9951 6.67138C64.9873 6.64397 64.9735 6.59499 64.9729 6.59276L64.8529 6.59836C64.767 6.60231 64.6494 6.60796 64.575 6.60156C64.6023 6.57898 64.6541 6.53492 64.6557 6.53359L64.5021 6.22323C64.5008 6.22362 64.4417 6.24153 64.3821 6.25961C64.3614 6.19118 64.3252 6.13157 64.2981 6.09677C64.2574 6.04657 64.2186 5.99831 64.2028 5.92126C64.1897 5.85731 64.181 5.81604 64.181 5.78494C64.181 5.72722 64.2096 5.7015 64.2887 5.62836C64.4455 5.48412 64.7091 5.24255 65.0294 4.54536L65.2969 3.88599C65.4762 3.40255 65.5308 3.28605 65.847 3.22955Z" fill="white"/>
<path d="M63.6423 6.48895C63.6371 6.48936 63.632 6.49014 63.6264 6.49055C63.6347 6.48961 63.6348 6.48965 63.6423 6.48815V6.48895Z" fill="white"/>
<path d="M63.9691 6.26108C63.9858 6.28407 64.002 6.3041 64.0162 6.32158C64.0168 6.32223 64.0215 6.32742 64.0221 6.32997C64.0213 6.33096 64.0074 6.34535 63.9869 6.36702L63.9691 6.26108Z" fill="white"/>
<path d="M64.9971 3.22729C64.847 3.78309 64.3336 5.07994 64.0289 5.1982C64.0041 5.17298 63.9733 5.12939 63.9672 5.10332V5.09585C63.9672 5.05082 63.9883 4.79696 64.3389 3.74167L64.3562 3.60175L64.3444 3.71955C64.3975 3.60533 64.8083 3.34747 64.9433 3.26287C64.9445 3.26209 64.973 3.24318 64.9971 3.22729Z" fill="white"/>
<path fill-rule="evenodd" clip-rule="evenodd" d="M67.5096 1.27783C72.3328 1.27788 76.2583 5.19791 76.2583 10.0163C76.2583 14.8347 72.3328 18.7544 67.5096 18.7544C62.6844 18.7543 58.7592 14.8348 58.7592 10.0163C58.7592 5.19788 62.6848 1.27783 67.5096 1.27783ZM65.0699 2.82577L64.9111 2.85429L64.8652 2.88561L64.7516 2.95837C64.4299 3.15991 64.108 3.37303 64.0178 3.5683L64.0131 3.57789L63.9965 3.62813C63.5634 4.93164 63.5999 5.10334 63.6156 5.17634C63.6391 5.29198 63.7419 5.46778 63.8856 5.54054C63.8468 5.60466 63.8246 5.6791 63.8246 5.78041C63.8246 5.84044 63.8322 5.91094 63.8495 5.99469C63.8566 6.02798 63.8655 6.05874 63.8757 6.08704L63.3929 6.16553C63.2683 6.17385 63.0971 6.18483 62.5176 6.29986L62.3264 6.34623L61.9801 6.44418L61.8261 6.49042C61.6741 6.5304 61.5006 6.57651 61.3677 6.76427C61.2739 6.89704 61.2402 7.04966 61.2703 7.20549C61.3388 7.5545 61.7161 7.84228 61.935 7.98173C62.301 8.21382 62.5266 8.29937 62.6272 8.33327C62.8292 8.65938 63.836 8.47498 63.9355 8.43494C64.0319 8.39582 64.1124 8.36119 64.181 8.33033C64.1858 9.02945 64.2095 9.85513 64.1801 10.5243C62.3379 10.5243 60.3036 10.3971 60.2844 10.3959C61.1445 11.5982 62.0639 12.1741 62.1776 12.4002C62.5669 13.1713 61.9346 13.3154 63.314 13.8909C63.3221 13.8981 63.716 14.2509 63.8551 14.2509C64.3367 14.2508 64.2174 13.5979 64.5584 13.2741C64.6613 13.346 64.7374 13.3923 64.8292 13.4796V13.1717C65.2348 13.2791 65.5055 13.2123 65.6405 13.2744C65.8469 13.367 67.7458 15.8887 67.7511 15.8959C67.8327 16.0403 67.8331 17.7976 70.0762 17.7976C70.1739 17.7976 70.4651 17.659 70.5092 17.6435C70.4502 17.4226 70.0231 16.7338 70.0228 16.6154C70.0228 15.2683 71.5536 14.4157 72.4038 13.9424C72.4629 13.9115 72.8202 13.3874 72.836 13.3767C73.1182 13.1867 73.5184 13.1554 73.594 13.0171L73.8105 11.4747C73.8105 10.9254 73.28 10.8481 73.0533 9.05913C73.0097 8.7043 73.0912 8.53972 73.0533 8.44201C72.9389 8.43178 72.8636 8.442 72.7283 8.44201C72.377 8.442 71.9551 7.97946 71.8623 7.9792C71.7493 7.9792 71.6468 8.13225 71.6458 8.13378H69.319C69.1786 8.13374 69.1191 7.90735 69.1026 7.82555C68.5291 7.8512 68.3778 7.82555 67.8592 7.82555C68.0694 7.66115 68.1025 7.69665 67.8592 7.46588C67.7729 7.51213 67.5722 7.62001 67.4804 7.62006C67.4588 7.61985 67.2639 7.47091 67.2638 7.31183V6.72415C68.4982 6.21387 69.549 6.15055 70.3283 6.1037L70.6674 6.08198L70.6806 6.07931C70.8728 6.03427 70.929 5.87221 70.9469 5.81879C71.0181 5.61416 70.8572 5.43299 70.7895 5.35544L70.7713 5.33572L70.7277 5.29654L70.4668 5.1349C70.229 4.98633 68.6969 4.79069 68.5811 4.78856L68.0254 4.77923L68.0367 4.69381C67.7945 4.61794 67.5894 4.29535 67.372 3.95342C67.0241 3.40773 66.5915 2.72898 65.7824 2.87481C65.6036 2.90719 65.4719 2.96442 65.369 3.04419L65.1735 2.80765L65.0699 2.82577Z" fill="white"/>
<path fill-rule="evenodd" clip-rule="evenodd" d="M67.5047 0C73.0566 0 77.5578 4.4955 77.5578 10.0398C77.5578 10.2786 77.5495 10.5162 77.533 10.7509H81.3064C84.9266 10.7509 88.8114 12.3723 88.8114 16.8271V18.5572H99.7798C103.716 18.5572 104.504 21.3873 104.504 22.8021V24.3745H107.075C109.331 24.3745 115 24.8987 115 28.2012V32.288C115 36.0044 109.016 36.0044 107.075 36.0044H104.661V38.1476C104.661 39.3516 104.03 42.0253 99.6746 42.0253H88.7056V43.5453C88.7056 44.6985 88.9152 49.9917 81.6205 49.9917C74.3265 49.9908 53.3784 50 53.3784 50C46.0837 50 46.2934 44.7072 46.2934 43.5537V42.0335H35.3243C30.9687 42.0334 30.3389 39.3614 30.3389 38.1557V36.0141H27.9251C25.9831 36.0141 20 36.0141 20 32.2968V28.2094C20.0001 24.9077 25.668 24.3836 27.9251 24.3836H30.4965V22.8111C30.4965 21.3965 31.2838 18.5662 35.2202 18.5662H46.189V16.8364C46.189 12.3821 50.0726 10.7603 53.6936 10.7603H57.4666L57.4794 10.7077C57.4612 10.457 57.4506 10.2955 57.4506 10.0398C57.4506 4.49524 61.9523 2.25112e-05 67.5047 0ZM53.0758 47.9525C52.5541 47.9525 51.4807 48.1817 51.4806 48.4655C51.4807 48.7497 52.509 48.9791 53.0754 48.9791H83.0877C83.3722 48.979 84.7271 48.7497 84.7273 48.4655H84.7299C84.7298 48.1817 83.372 47.9525 83.088 47.9525H53.0758ZM56.3573 41.247C55.5513 41.247 54.8816 41.7205 54.2209 42.3517C53.4289 43.0988 52.934 44.0365 52.7044 44.7753C52.4974 45.4405 52.4859 46.0365 52.6311 46.386C52.8259 46.859 53.1467 47.0172 53.6624 47.0172C54.2862 47.0172 54.9441 46.6764 55.4602 46.2527C56.0235 45.797 56.7737 44.9503 57.1818 43.6388C57.5848 42.3436 57.323 41.247 56.3573 41.247ZM73.7807 41.247C72.9748 41.247 72.3046 41.7205 71.6443 42.3517C70.8523 43.0988 70.3568 44.0365 70.127 44.7753C69.9209 45.4405 69.9091 46.0365 70.0547 46.386C70.2479 46.859 70.569 47.0172 71.0851 47.0172C71.7097 47.0172 72.3671 46.6764 72.8825 46.2527C73.4461 45.797 74.1959 44.9503 74.6045 43.6388C75.0079 42.3436 74.7457 41.247 73.7807 41.247ZM79.0192 41.4642C78.7944 41.4642 78.5739 41.5884 78.4869 41.871C78.4556 41.9706 78.4667 42.0287 78.4927 42.0614L77.4442 45.4309C77.4177 45.5148 77.1501 45.8132 76.8425 45.9864C76.5072 46.1781 76.1011 46.2946 75.7373 46.2946C75.4329 46.2946 75.2195 46.1863 75.2155 45.9207L76.4498 41.9536C76.4992 41.796 76.487 41.5309 76.24 41.5308C76.052 41.5308 75.767 41.7218 75.7647 42.0115L74.5651 45.8628C74.3744 46.4774 74.6396 46.9993 75.5397 46.9993C76.0484 46.9992 76.5991 46.908 77.2625 46.4356C77.6911 46.1281 78.0091 45.7628 78.0839 45.5225L79.1684 42.0361C79.2076 41.9784 79.2231 41.9282 79.2465 41.8536C79.3347 41.5718 79.2013 41.4642 79.0192 41.4642ZM84.9504 41.513C84.7038 41.513 84.509 41.6453 84.4318 41.8943C84.4293 41.9036 84.4143 41.9538 84.4151 41.9948C84.3632 42.045 84.3015 42.1023 84.2603 42.2351C84.2168 42.377 84.2358 42.5006 84.3173 42.5674L83.8886 43.9445C83.8071 44.0197 83.7272 44.1363 83.6789 44.2941C83.6366 44.4264 83.6488 44.5248 83.6895 44.5838L83.1519 46.3104C83.078 46.3855 83.0285 46.4523 82.9842 46.5925C82.902 46.8586 83.0059 46.991 83.2449 46.991C83.3396 46.991 83.4639 46.9412 83.5419 46.9001L85.7587 46.7089C86.086 46.7263 86.2904 46.61 86.381 46.3195C86.4087 46.2278 86.3971 45.9382 86.1434 45.9381C86.071 45.9381 86.01 45.945 85.9091 46.0121L83.8593 46.187L84.3652 44.5597L85.9834 44.3529C85.9972 44.378 86.0286 44.3944 86.0863 44.3944C86.348 44.3944 86.5622 44.244 86.6576 43.9385C86.7185 43.7377 86.5918 43.5892 86.3812 43.5891C86.2573 43.5891 86.2015 43.6052 86.0962 43.6638L84.5853 43.8543L85.0117 42.4851L86.7712 42.3352C86.8377 42.4018 86.9149 42.4107 87.0015 42.4107C87.2129 42.4107 87.4877 42.3181 87.6088 41.9281C87.6681 41.7363 87.5948 41.5304 87.2976 41.5304C87.2252 41.5304 87.1123 41.5881 87.026 41.6296L85.2449 41.7787C85.2556 41.6039 85.1463 41.513 84.9504 41.513ZM82.2725 41.464C81.7852 41.4641 81.2338 41.6301 80.6374 42.0527C80.1244 42.4182 79.5979 43.0163 79.4111 43.6131C79.239 44.1696 79.3798 44.5765 80.0044 44.5765C80.1927 44.5764 80.4874 44.519 81.0296 44.3357C81.6051 44.1444 81.8526 44.1202 82.0635 44.1202C82.3026 44.1202 82.3857 44.2949 82.3061 44.551C82.2032 44.883 82.0446 45.1823 81.7022 45.4894C81.2249 45.9048 80.4771 46.2776 79.8596 46.2777C79.5687 46.2777 79.4622 46.2036 79.4915 45.7803C79.5092 45.4895 79.4874 45.3073 79.269 45.3073C79.0873 45.3073 78.8355 45.5061 78.7464 45.797C78.6557 46.0867 78.7096 46.4275 78.841 46.6351C79.0034 46.8832 79.2476 46.9837 79.6469 46.9837C79.9881 46.9837 80.2384 46.9508 80.7209 46.7766C81.116 46.6272 81.4097 46.4772 81.9504 46.0461C82.4147 45.673 82.7777 45.2068 83.0075 44.4689C83.2344 43.7385 82.9105 43.3562 82.1918 43.3562C81.9301 43.3562 81.5802 43.4313 81.0541 43.6053C80.6181 43.7467 80.4378 43.8131 80.3076 43.8131C80.0971 43.8131 80.0832 43.6219 80.1299 43.4733C80.1975 43.257 80.466 42.9084 80.8222 42.6266C81.1665 42.3609 81.5449 42.1695 82.0163 42.1695C82.3357 42.1695 82.3785 42.2443 82.4684 42.3273C82.4511 42.4759 82.5575 42.5764 82.768 42.5764C82.9359 42.5763 83.1212 42.4933 83.2143 42.1942C83.3303 41.8207 82.8101 41.4641 82.2725 41.464ZM64.6218 41.4305C64.0554 41.4305 63.7557 41.531 63.1739 41.7464C63.1988 41.5722 63.1033 41.4807 62.9364 41.4807C62.7471 41.4807 62.4967 41.5883 62.4191 41.8373C62.3895 41.9282 62.3903 42.0207 62.3855 42.0361L60.9441 46.6678C60.8947 46.8256 60.8992 46.9755 61.139 46.9755C61.3425 46.9755 61.9648 46.8176 62.4995 46.5932C62.834 46.4529 63.3735 46.1865 63.863 45.8043C64.7203 45.1245 65.3003 44.1943 65.5814 43.2894C65.8819 42.3269 65.4344 41.4305 64.6218 41.4305ZM50.3643 41.4887C50.2048 41.4887 49.9458 41.5958 49.8628 41.8617C49.8346 41.9526 49.8284 42.0195 49.8323 42.0772L49.7806 42.2432C49.6242 42.3262 49.4959 42.4338 49.4341 42.6334C49.3622 42.865 49.4274 42.982 49.5382 43.0227L48.5212 46.2859C48.41 46.4108 48.3993 46.4694 48.3811 46.5275C48.3166 46.7338 48.3962 46.9005 48.6357 46.9005C48.8748 46.9005 49.0933 46.7594 49.168 46.5183C49.1887 46.4527 49.1902 46.3772 49.1787 46.3195L49.7036 44.6344C49.7712 44.7676 49.8799 44.933 50.1786 45.3732L51.0958 46.7175C51.12 46.8499 51.2237 46.9574 51.3839 46.9574C51.5941 46.9574 51.8458 46.825 51.952 46.485C52.0062 46.3108 51.8986 46.144 51.7003 46.1531L50.7218 44.8166C50.5801 44.6166 50.4604 44.4427 50.3366 44.3269C50.7899 44.2027 51.1993 44.0532 51.6351 43.796C52.171 43.4723 52.6444 43.0484 52.8122 42.5085C53.0184 41.8452 52.7397 41.5044 52.1523 41.5044C51.7022 41.5044 51.12 41.6949 50.5655 41.9602C50.7099 41.612 50.5385 41.4887 50.3643 41.4887ZM70.1487 41.4898C69.9891 41.4898 69.7775 41.5383 69.6844 41.8376C69.6508 41.9453 69.6623 41.979 69.6614 42.0043L69.1781 43.5561L66.7595 43.7055L67.2868 42.0119C67.3062 41.9711 67.3481 41.9287 67.3719 41.8541C67.4201 41.6968 67.3809 41.4976 67.1269 41.4975C66.866 41.4975 66.6827 41.6639 66.6186 41.8714C66.6107 41.8951 66.6048 41.9616 66.6182 42.0117L66.0677 43.7806C65.9916 43.8379 65.9266 43.9292 65.8779 44.0861C65.8389 44.2109 65.85 44.2948 65.8868 44.3612L65.272 46.336C65.2177 46.3937 65.1658 46.4692 65.1448 46.5352C65.0601 46.8099 65.2125 46.9008 65.4089 46.9008C65.598 46.9008 65.8137 46.8339 65.902 46.5514C65.9328 46.4529 65.9416 46.377 65.94 46.3359L66.5397 44.4104L68.9618 44.2532L68.324 46.3023C68.2888 46.3454 68.2217 46.4182 68.1965 46.5019C68.1042 46.8003 68.2028 46.9008 68.472 46.9008C68.6968 46.9007 68.8829 46.7676 68.9502 46.5514C68.9806 46.4529 68.9767 46.4437 68.9675 46.3773L70.3214 42.0289C70.3585 41.9789 70.3866 41.9365 70.4254 41.8128C70.4955 41.5886 70.3083 41.4898 70.1487 41.4898ZM60.0384 41.3227C59.8203 41.3227 59.5773 41.5215 59.4811 41.829C59.4736 41.8537 59.404 41.9366 59.0234 42.4849L57.0438 45.3234C56.65 45.8881 56.3267 46.3452 56.272 46.5183C56.2023 46.7424 56.2328 46.9005 56.5381 46.9005C56.7419 46.9005 56.9544 46.7763 57.0372 46.5105C57.0783 46.3773 57.1243 46.2531 57.2244 46.0962C57.2845 45.9957 57.3266 45.9281 58.0125 44.9165L59.611 44.8175C59.7253 46.012 59.7275 46.1445 59.7048 46.2204C59.6837 46.286 59.6125 46.3528 59.5532 46.544C59.4788 46.7839 59.6598 46.9005 59.8632 46.9005C60.052 46.9004 60.3073 46.7091 60.411 46.3772C60.4779 46.1617 60.4308 45.5889 60.297 44.551C60.162 43.5147 60.1222 42.1285 60.1815 41.9366C60.2238 41.871 60.2535 41.846 60.2914 41.7207C60.3511 41.5311 60.2489 41.3227 60.0384 41.3227ZM35.0266 39.5195C34.7428 39.5195 33.3851 39.7497 33.3851 40.0335H33.3877C33.3882 40.3177 34.7427 40.547 35.0265 40.547H101.289C101.854 40.5469 102.883 40.3177 102.883 40.0335C102.883 39.7497 101.809 39.5197 101.288 39.5195H35.0266ZM95.3537 22.1404C90.8927 22.1404 90.2526 25.848 90.2525 26.6584C90.2526 29.1098 91.8105 30.1751 94.18 31.0487C96.5483 31.9223 97.8934 32.6046 97.8934 33.8193C97.8932 35.0339 96.3354 35.6719 95.6094 35.6719C93.5271 35.6719 93.0107 33.9615 93.0064 33.947H90.21C90.2135 33.9685 90.8841 37.9865 95.2038 37.9865C98.8538 37.9864 100.711 35.778 100.711 33.2447C100.711 30.7083 98.8111 29.5579 96.57 28.7472C94.3292 27.9377 93.1341 27.3837 93.1341 26.0198C93.1341 25.1881 93.7529 24.677 95.0333 24.677C97.1675 24.6766 97.4031 26.1047 97.4031 26.1047H100.219C100.219 26.1047 99.8144 22.1405 95.3537 22.1404ZM35.6411 22.7518L35.6091 25.4276H39.5004V37.4555H42.2749V25.4594H46.134V22.7518H35.6411ZM49.0342 22.7518V37.4555H58.5063V35.1727H52.0957V31.1918H57.3908V28.8356H52.0328V25.1089H58.2517V22.7518H49.0342ZM76.775 37.4433H79.6353L80.2541 35.323L85.3015 35.3337L85.9202 37.4528H88.7806L84.6184 22.7368L80.9372 22.7268L76.775 37.4433ZM62.0898 22.7514L65.6938 29.8226L61.4838 37.4243H64.8325L67.4802 32.1796L70.2069 37.4396H73.5568L69.3457 29.8383L72.9512 22.7677H69.7287L67.4786 27.5288L65.3107 22.7514H62.0898ZM23.5973 33.0251C23.3492 33.0255 23.0298 33.2264 23.0298 33.4742C23.0299 33.7224 23.3496 33.9229 23.5977 33.9229H30.1548C30.4034 33.9228 30.7422 33.7223 30.7423 33.4742C30.7423 33.226 30.4034 33.0251 30.1548 33.0251H23.5973ZM104.86 32.9999C104.612 32.9999 104.273 33.2006 104.273 33.449C104.273 33.6973 104.613 33.8985 104.86 33.8985H111.418C111.666 33.8985 111.986 33.6971 111.986 33.449C111.986 33.2008 111.666 33 111.418 32.9999H104.86ZM21.3011 29.8771C21.0526 29.8771 20.733 30.0784 20.733 30.3258C20.7331 30.574 21.0526 30.7755 21.3011 30.7755H30.1999C30.4481 30.7755 30.7881 30.5739 30.7882 30.3258C30.7882 30.0784 30.4482 29.8772 30.1999 29.8771H21.3011ZM104.816 29.8522C104.567 29.8522 104.228 30.0527 104.228 30.3009C104.228 30.549 104.567 30.75 104.816 30.75H113.715C113.963 30.7499 114.282 30.549 114.282 30.3009C114.282 30.0527 113.963 29.8524 113.715 29.8522H104.816ZM23.6599 26.7514C23.4121 26.7518 23.0924 26.9529 23.0924 27.2011C23.0925 27.448 23.4122 27.6498 23.6603 27.6498H30.2178C30.4663 27.6498 30.8051 27.4482 30.8053 27.2011C30.8053 26.9529 30.4664 26.7514 30.2178 26.7514H23.6599ZM104.798 26.726C104.55 26.726 104.21 26.9276 104.21 27.1758C104.21 27.424 104.55 27.6245 104.798 27.6245H111.355C111.604 27.6244 111.923 27.424 111.924 27.1758C111.923 26.9276 111.604 26.7259 111.355 26.726H104.798ZM34.6583 19.6619C34.1365 19.662 33.0631 19.892 33.0631 20.1754C33.0632 20.4592 34.0919 20.6888 34.6583 20.6888H60.2475C60.5319 20.6888 61.8872 20.4592 61.8875 20.1754H61.8895C61.8895 19.892 60.5322 19.662 60.2478 19.6619H34.6583ZM74.7677 19.6366C74.4838 19.6367 73.1257 19.8672 73.1257 20.1506H73.1286C73.129 20.434 74.4836 20.6644 74.768 20.6645H100.357C100.924 20.6644 101.952 20.434 101.952 20.1506C101.952 19.8672 100.879 19.6367 100.357 19.6366H74.7677ZM67.5096 0.738259C62.3866 0.738259 58.2185 4.90027 58.2185 10.0163C58.2185 15.132 62.3866 19.2944 67.51 19.2944C72.6309 19.2944 76.7994 15.1325 76.7994 10.0163C76.7994 4.90016 72.6305 0.738309 67.5096 0.738259ZM48.0994 16.5009C47.8154 16.5013 47.27 16.7313 47.27 17.0147C47.2701 17.2981 47.8156 17.5278 48.0994 17.5278H57.9921C58.2763 17.5278 58.7834 17.2981 58.7835 17.0147C58.7835 16.7309 58.2764 16.5009 57.9921 16.5009H48.0994ZM77.023 16.476C76.7391 16.476 76.2321 16.7057 76.2321 16.9896C76.2323 17.2729 76.7392 17.5034 77.023 17.5034H86.9165C87.1995 17.5034 87.7449 17.2729 87.7451 16.9896C87.7451 16.7062 87.1996 16.4764 86.9165 16.476H77.023ZM49.2452 13.36C48.9607 13.36 48.5957 13.5901 48.5957 13.8739C48.5958 14.1573 48.9603 14.387 49.2452 14.387H56.7459C57.0305 14.387 57.4187 14.1573 57.4188 13.8739C57.4188 13.5901 57.0304 13.36 56.7459 13.36H49.2452ZM78.269 13.335C77.9854 13.335 77.5964 13.5651 77.5964 13.8485C77.5964 14.1319 77.9856 14.3619 78.269 14.3619H85.7698C86.0544 14.3619 86.4193 14.1318 86.4194 13.8485C86.4194 13.5651 86.0544 13.3352 85.7698 13.335H78.269Z" fill="white"/>
<path d="M91.125 43.9107C91.125 44.3111 90.8297 44.6282 90.4544 44.6282C90.0792 44.6282 89.7799 44.3108 89.7799 43.9107C89.7799 43.5114 90.0792 43.1992 90.458 43.1992C90.8297 43.1992 91.125 43.5114 91.125 43.9107ZM89.9466 43.9107C89.9466 44.2281 90.1664 44.4803 90.4577 44.4803C90.7407 44.4846 90.9565 44.2277 90.9565 43.9146C90.9565 43.5981 90.7407 43.3419 90.4506 43.3419C90.1664 43.3419 89.9466 43.5985 89.9466 43.9107ZM90.35 44.2806H90.1985V43.5671C90.2575 43.5588 90.3425 43.5461 90.4506 43.5461C90.5742 43.5461 90.6299 43.5671 90.6735 43.6022C90.7131 43.6326 90.7407 43.6851 90.7407 43.7543C90.7407 43.8416 90.6817 43.8981 90.6049 43.9246V43.9329C90.6698 43.9542 90.7011 44.0108 90.7217 44.1061C90.7407 44.2144 90.7574 44.2539 90.7689 44.2803H90.6094C90.5904 44.2539 90.5773 44.193 90.5583 44.1061C90.546 44.033 90.5061 43.9977 90.4222 43.9977H90.3498V44.2803H90.35V44.2806ZM90.354 43.8807H90.4264C90.5103 43.8807 90.5773 43.8502 90.5773 43.7759C90.5773 43.711 90.5345 43.6675 90.4379 43.6675C90.3983 43.6675 90.3703 43.6719 90.354 43.6758V43.8807Z" fill="white"/>
</svg>
