<svg width="49" height="48" viewBox="0 0 49 48" fill="none" xmlns="http://www.w3.org/2000/svg">
<path d="M24.3006 31.8885C23.1987 31.8885 22.2057 31.6803 21.3339 31.27C20.462 30.8598 19.7476 30.278 19.1906 29.531C18.6336 28.7839 18.2824 27.8899 18.125 26.8612L20.7163 26.4448C20.9222 27.3511 21.3581 28.0675 22.0301 28.6002C22.7022 29.133 23.5074 29.3963 24.4459 29.3963C25.3843 29.3963 26.0867 29.182 26.6679 28.7533C27.2491 28.3247 27.5397 27.7797 27.5397 27.1184C27.5397 26.653 27.4005 26.2795 27.128 25.9917C26.8495 25.7039 26.4075 25.4589 25.796 25.2691L22.012 24.0812C19.8081 23.3892 18.7123 22.036 18.7123 20.0275C18.7123 19.0845 18.9363 18.264 19.3843 17.5659C19.8324 16.8617 20.462 16.3229 21.2733 15.9432C22.0846 15.5636 23.0473 15.3799 24.1492 15.386C25.1724 15.3921 26.0867 15.5819 26.8919 15.9494C27.6971 16.3168 28.3631 16.8434 28.8959 17.5292C29.4287 18.215 29.8102 19.0478 30.0342 20.0275L27.3399 20.5235C27.237 20.003 27.0372 19.5438 26.7405 19.1458C26.4439 18.7477 26.0685 18.4416 25.6205 18.2211C25.1724 18.0007 24.6699 17.8843 24.1189 17.866C23.5862 17.8598 23.1139 17.9394 22.6901 18.117C22.2663 18.2885 21.9333 18.5334 21.685 18.8457C21.4368 19.158 21.3157 19.507 21.3157 19.8989C21.3157 20.3337 21.4852 20.7011 21.8303 21.0134C22.1755 21.3195 22.7204 21.589 23.4711 21.8094L26.2925 22.6361C27.6487 23.0341 28.6295 23.5729 29.2289 24.2526C29.8283 24.9323 30.125 25.8325 30.125 26.9592C30.125 27.945 29.8828 28.8084 29.3924 29.5494C28.908 30.2903 28.2239 30.872 27.346 31.2823C26.4681 31.6987 25.4449 31.9069 24.2824 31.9069L24.3006 31.8885ZM22.9262 16.1147V13.5H25.5539V16.1147H22.9262ZM22.9262 33.75V31.1353H25.5539V33.75H22.9262Z" fill="#00A870"/>
<path d="M41 23.625C41 14.5123 33.6127 7.125 24.5 7.125C15.3873 7.125 8 14.5123 8 23.625C8 32.7377 15.3873 40.125 24.5 40.125C33.6127 40.125 41 32.7377 41 23.625ZM43.25 23.625C43.25 33.9803 34.8553 42.375 24.5 42.375C14.1447 42.375 5.75 33.9803 5.75 23.625C5.75 13.2697 14.1447 4.875 24.5 4.875C34.8553 4.875 43.25 13.2697 43.25 23.625Z" fill="#00A870"/>
</svg>
