<svg width="28" height="27" viewBox="0 0 28 27" fill="none" xmlns="http://www.w3.org/2000/svg">
<path d="M14 2.53125C7.95203 2.53125 3.03125 7.45203 3.03125 13.5C3.03125 19.548 7.95203 24.4688 14 24.4688C20.048 24.4688 24.9688 19.548 24.9688 13.5C24.9688 7.45203 20.048 2.53125 14 2.53125ZM14 4.21875C19.135 4.21875 23.2812 8.36499 23.2812 13.5C23.2812 18.635 19.135 22.7812 14 22.7812C8.86499 22.7812 4.71875 18.635 4.71875 13.5C4.71875 8.36499 8.86499 4.21875 14 4.21875ZM13.1562 8.4375V10.125H14.8438V8.4375H13.1562ZM13.1562 11.8125V18.5625H14.8438V11.8125H13.1562Z" fill="white"/>
</svg>
