<svg width="49" height="48" viewBox="0 0 49 48" fill="none" xmlns="http://www.w3.org/2000/svg">
<path fill-rule="evenodd" clip-rule="evenodd" d="M43.0844 7.21726C43.3106 9.25424 43.2353 12.4871 42.5323 15.9884C41.8289 19.4915 40.4804 23.3479 38.098 26.5712L38.0053 26.697L34.4769 29.4259C35.11 31.1474 35.2946 34.2651 32.744 37.241C30.1496 40.2677 26.9931 43.1726 25.7274 44.2575L24.269 45.5077L22.7661 37.9919L10.6369 25.8627L3.12109 24.3598L4.37131 22.9014C5.4562 21.6356 8.3611 18.4792 11.3878 15.8848C14.6586 13.0814 18.1013 13.5812 19.6727 14.3503L22.2648 11.1419L22.344 11.043L22.4445 10.9643C25.6149 8.47324 29.5731 7.18689 33.165 6.5704C36.7626 5.95299 40.0922 5.9909 42.0962 6.22392L42.9854 6.32699L43.0844 7.21726ZM18.1915 16.1847C17.0796 15.8565 14.9795 15.7688 12.8514 17.5929C10.7779 19.3702 8.7517 21.4377 7.38134 22.9169L12.0067 23.8413L18.1915 16.1847ZM24.8387 36.8816L25.7119 41.2475C27.191 39.8771 29.2586 37.8509 31.0359 35.7774C32.6253 33.9231 32.7617 32.0904 32.5539 30.9138L24.8387 36.8816ZM40.919 8.3758C39.0768 8.2515 36.4064 8.29698 33.5452 8.78805C30.1975 9.36262 26.6851 10.531 23.9298 12.6599L13.5133 25.5571L23.2343 35.2781L36.3781 25.1102C38.4486 22.258 39.6732 18.7964 40.326 15.5451C40.8861 12.7555 41.0125 10.1814 40.919 8.3758Z" fill="#00A870"/>
<path d="M14.9194 34.3879C16.0205 35.4889 16.5808 36.7112 16.3193 37.9857C16.074 39.1811 15.1676 40.0648 14.2286 40.6969C12.3312 41.9741 9.46831 42.7772 7.45028 43.1808L5.82666 43.5055L6.1229 41.8762C6.4853 39.8831 7.28816 37.0201 8.57775 35.1103C9.21561 34.1658 10.1052 33.256 11.3014 33.002C12.5812 32.7302 13.8125 33.2809 14.9194 34.3879ZM13.3285 35.9788C12.5263 35.1767 12.0295 35.1483 11.7691 35.2035C11.4252 35.2766 10.9622 35.5998 10.4422 36.3699C9.70477 37.462 9.11853 39.0573 8.71862 40.5721C10.2677 40.1546 11.8778 39.5671 12.9716 38.8309C13.736 38.3164 14.0466 37.8644 14.1146 37.5336C14.1663 37.2818 14.1365 36.7869 13.3285 35.9788Z" fill="#00A870"/>
<path d="M30.299 21.6599C31.0312 20.9277 31.0312 19.7405 30.299 19.0083C29.5668 18.276 28.3796 18.276 27.6474 19.0083C26.9151 19.7405 26.9151 20.9277 27.6474 21.6599L26.0564 23.2509C24.4455 21.64 24.4455 19.0282 26.0564 17.4173C27.6673 15.8064 30.2791 15.8064 31.89 17.4173C33.5009 19.0282 33.5009 21.64 31.89 23.2509C30.2791 24.8618 27.6673 24.8618 26.0564 23.2509L27.6474 21.6599C28.3796 22.3922 29.5668 22.3922 30.299 21.6599Z" fill="#00A870"/>
</svg>
