<svg width="191" height="65" viewBox="0 0 191 65" fill="none" xmlns="http://www.w3.org/2000/svg">
<g clip-path="url(#clip0_369_6839)">
<path d="M132.851 64.9193L121.157 48.621L114.789 57.664H112.45L119.995 46.9949L108.173 30.3274H110.508L121.256 45.5389L126.877 37.3876H129.266L122.492 47.0737L135.236 64.9193H132.851Z" fill="white"/>
<path d="M190.162 31.0243V31.9203H115.577C115.071 31.9825 115.071 30.9662 115.577 31.0201H190.162V31.0243Z" fill="white"/>
<path d="M104.19 31.0242H0V31.9202H104.19V31.0242Z" fill="white"/>
<path d="M155.416 37.2176C163.169 36.8816 167.96 44.5973 165.135 51.5994C161.875 59.6884 150.318 59.9415 146.792 51.9355C143.913 45.3937 148.057 37.537 155.416 37.2176ZM154.819 38.7068C144.444 39.7605 145.407 57.129 156.578 56.3699C167.749 55.6108 166.604 37.508 154.819 38.7068Z" fill="white"/>
<path d="M110.259 37.1885V38.9764H100.909V46.132H109.662V47.924H100.909V55.677H110.757V57.4649H98.918V37.1885H110.259Z" fill="white"/>
<path d="M134.24 48.1232V57.6641H132.249V37.3835H139.264C139.737 37.3835 141.018 37.7444 141.5 37.9311C146.942 40.0591 145.158 48.1191 139.363 48.1191H134.24V48.1232ZM134.24 46.3312H138.865C141.342 46.3312 143.217 44.423 142.669 41.9341C142.325 40.3702 140.529 39.1756 138.965 39.1756H134.24V46.3312Z" fill="white"/>
<path d="M111.554 41.3616L115.822 47.364L111.305 52.6945L111.354 41.4114L111.554 41.3616Z" fill="white"/>
<path d="M32.1986 57.5643L27.9218 50.11L28.0587 57.4025C27.9716 57.6597 26.6276 57.6183 26.5239 57.4731L26.4824 48.123C26.9263 48.1064 28.2371 47.8492 28.5482 48.1479L32.601 55.3782L32.4517 48.1189C32.9619 48.2433 33.9616 47.646 34.0487 48.3636C34.2562 50.0602 33.9243 52.3459 33.9409 54.1379C33.9492 55.1003 34.1649 56.2369 34.0487 57.22C34.0363 57.3196 34.0031 57.5643 33.8953 57.5643H32.2028H32.1986Z" fill="white"/>
<path d="M81.7778 47.9489C85.5277 47.4428 87.3612 50.0271 87.075 53.5365C86.8344 56.49 84.6151 58.2199 81.6824 57.635C76.9285 56.6892 77.4346 48.5338 81.7819 47.9448L81.7778 47.9489ZM82.0764 49.239C79.5626 49.6663 79.4755 55.3991 81.7736 56.2536C83.744 56.9878 85.088 55.4945 85.2747 53.6278C85.5029 51.3587 84.9553 48.7536 82.0764 49.239Z" fill="white"/>
<path d="M88.2206 57.5644L87.9717 48.119C89.7388 48.0775 93.3063 47.4926 94.1898 49.5128C94.9365 51.2094 93.9451 52.8521 92.2485 53.3374L94.9407 57.1081L95.0319 57.5644H93.1901L90.6556 53.7356C90.4357 53.4909 90.0624 53.6112 89.7554 53.5904C89.7803 54.4989 89.7222 55.4198 89.7554 56.3283C89.7637 56.5398 90.025 57.5686 89.7098 57.5686H88.2164L88.2206 57.5644ZM89.7637 52.2962H91.3068C91.3608 52.2962 91.8668 52.1012 91.9581 52.0556C93.0159 51.4998 93.0449 49.9442 91.9249 49.492C91.8461 49.4588 91.34 49.3136 91.3068 49.3136H89.7637V52.2962Z" fill="white"/>
<path d="M58.0714 57.5644L57.835 48.2849C57.893 48.1148 58.8181 48.0401 59.067 48.0236C60.0086 47.9613 61.4646 47.9655 62.3648 48.2061C65.2105 48.9652 64.7542 52.711 62.0993 53.3415L64.7708 57.0335L64.8828 57.5644H63.041L60.4027 53.6402L59.6062 53.5904C59.4569 53.7356 59.7722 56.7016 59.71 57.2243C59.6975 57.3238 59.6643 57.5686 59.5565 57.5686H58.0631L58.0714 57.5644ZM59.6145 52.2962H61.1577C61.5559 52.2962 62.3524 51.7528 62.51 51.3587C62.7547 50.7365 62.5598 49.8488 61.9334 49.5335C61.8629 49.5003 61.2946 49.3136 61.2572 49.3136H59.6145V52.2962Z" fill="white"/>
<path d="M56.7274 57.0168C56.6071 57.4316 54.2426 57.7718 53.7904 57.7718C49.8123 57.7718 47.8792 54.391 49.1859 50.7779C50.1483 48.1189 53.4503 47.1814 55.9268 48.2724C56.8643 48.6831 56.1549 49.1643 56.325 50.0105C55.9143 50.0935 55.6903 49.7575 55.3668 49.6247C52.0731 48.26 50.2437 50.6203 50.6793 53.8103C50.9697 55.9632 53.0769 56.855 55.0183 56.1581C55.0225 55.4861 55.0556 54.8017 55.0349 54.1297C55.0266 53.9057 54.7611 52.7898 55.0805 52.7898H56.7232V57.0127L56.7274 57.0168Z" fill="white"/>
<path d="M70.3461 48.0359L73.2457 57.4647C72.6442 57.4274 72.051 57.6887 71.4495 57.5187L70.6489 54.6896L67.5336 54.673C67.3968 54.6979 66.9778 57.1163 66.733 57.3652C66.6584 57.4398 64.7626 57.8298 65.1277 57.1619L68.16 48.1769C68.8694 47.9902 69.616 47.9944 70.3461 48.0317V48.0359ZM70.259 53.4907C69.894 52.3707 69.7032 51.0184 69.2925 49.9316C69.2468 49.8071 69.2344 49.6412 69.0643 49.6122L67.9692 53.4907H70.259Z" fill="white"/>
<path d="M48.0699 49.413H44.0918V51.9974H47.3274C47.3979 51.9974 47.7713 51.7526 47.8335 52.1426C47.8542 52.2794 47.7671 53.2916 47.6261 53.2916H44.1416C44.1416 53.2916 43.9923 53.4285 43.9923 53.4409V55.9257C43.9923 55.9506 44.1084 56.2659 44.154 56.2783L48.1737 56.1746C48.1654 56.4111 48.2732 57.5684 47.9248 57.5684H42.4533C42.1463 57.5684 42.3994 56.4691 42.4077 56.2327C42.4865 53.5695 42.3703 50.8815 42.3454 48.2184C42.5321 47.9529 47.3233 48.0317 48.0077 48.04C48.3977 48.1686 47.987 49.0895 48.0699 49.4172V49.413Z" fill="white"/>
<path d="M74.4399 57.5644V49.4132H71.951C72.0049 49.1311 71.8058 48.2351 72.1128 48.1355L78.3724 48.0194C78.9283 47.8866 78.7458 49.4173 78.5674 49.4173H76.2776C76.1697 49.4173 76.1365 49.6579 76.1241 49.7616C75.9291 51.4334 76.1863 53.7232 76.232 55.4281C76.2444 55.9508 76.29 56.7389 76.232 57.2284C76.2195 57.328 76.1863 57.5727 76.0785 57.5727H74.4358L74.4399 57.5644Z" fill="white"/>
<path d="M39.0139 49.4131C39.0595 51.4831 38.9558 53.5613 39.0139 55.6313C39.0222 55.8885 39.3084 57.5644 38.9682 57.5644H37.3753C37.0476 57.5644 37.3214 56.3614 37.3297 56.1291C37.3961 53.8973 37.2716 51.649 37.3297 49.4131H34.8906C34.596 49.4131 34.9403 48.3512 34.8408 48.1189C36.9107 48.2433 39.1093 47.841 41.1626 48.0152C41.3161 48.0276 41.536 47.9861 41.5982 48.1853C41.6355 48.3014 41.4738 49.4131 41.3576 49.4131H39.018H39.0139Z" fill="white"/>
<path d="M24.468 48.0085L22.6055 48.0146L22.6371 57.5679L24.4997 57.5617L24.468 48.0085Z" fill="white"/>
<path d="M54.8354 40.9138C54.5824 38.8687 52.4834 39.2918 51.3053 40.2666L51.3551 46.0327L50.3554 46.0907L50.1562 38.8438C50.8697 38.5368 51.4214 38.3585 51.2555 39.3748C51.6496 39.242 51.9192 38.96 52.3258 38.8023C53.4416 38.3626 54.8811 38.346 55.4369 39.5739C57.0547 38.2714 60.0995 37.7819 60.3982 40.5321C60.5268 41.7019 60.3733 43.0957 60.4065 44.3029C60.4148 44.5808 60.6263 45.9248 60.5102 46.0368C60.4728 46.0741 59.498 46.099 59.4607 46.0409C59.4316 44.5393 59.6141 43.0128 59.5187 41.5111C59.4731 40.8018 59.4275 39.8809 58.6767 39.5698C57.6438 39.1383 56.5445 39.7357 55.7273 40.3413L55.9347 46.0409C55.7314 45.9497 54.8396 46.2359 54.8396 45.9912C54.6985 44.3983 55.0304 42.4735 54.8396 40.9221L54.8354 40.9138Z" fill="white"/>
<path d="M42.9963 40.9138C42.7432 38.8687 40.6442 39.2918 39.4662 40.2666L39.5159 46.0327L38.5162 46.0907L38.2549 38.9185C38.8605 38.5078 39.6321 38.3377 39.4164 39.3706C39.8105 39.2379 40.0801 38.9558 40.4866 38.7982C41.6025 38.3585 43.0419 38.3419 43.5978 39.5697C45.2156 38.2672 48.2603 37.7777 48.559 40.528C48.6876 41.6978 48.5341 43.0916 48.5673 44.2987C48.5756 44.5766 48.7872 45.9206 48.671 46.0327C48.6337 46.07 47.6589 46.0949 47.6215 46.0368C47.5925 44.5352 47.775 43.0086 47.6796 41.507C47.6381 40.864 47.5593 39.9099 46.908 39.5946C45.8834 39.1051 44.7053 39.7191 43.8881 40.3372L44.0956 46.0368C43.8923 45.9455 43.0004 46.2318 43.0004 45.987C42.8594 44.3941 43.1912 42.4693 43.0004 40.9179L42.9963 40.9138Z" fill="white"/>
<path d="M62.2976 42.3573C62.4096 44.5143 63.9901 45.8625 66.1471 45.1615C66.6864 44.9872 67.0556 44.56 67.57 44.448C67.7774 45.5099 67.1717 45.8252 66.2591 46.0699C62.7373 47.0198 60.5844 44.1576 61.5509 40.8681C62.5174 37.5785 67.487 37.7279 67.7691 41.3161C67.7815 41.4986 67.8313 42.3573 67.6197 42.3573H62.2976ZM66.7776 41.4613C66.6117 38.4953 62.7497 38.6903 62.4013 41.4613H66.7776Z" fill="white"/>
<path d="M29.8338 45.5099C29.2821 46.1777 27.1417 46.3022 26.3286 46.2358C20.0939 45.738 20.8032 34.3263 28.3778 35.8404C29.307 36.0271 30.3399 36.2677 29.614 37.3877C25.8267 35.019 22.3795 38.2671 23.3626 42.3448C23.9434 44.759 26.4157 46.0159 28.7387 45.0618C29.0581 44.9291 29.7509 44.3525 29.8172 44.3484C30.0371 44.3484 30.0205 45.29 29.838 45.5099H29.8338Z" fill="white"/>
<path d="M33.9242 38.5036C38.172 38.3667 38.3752 44.9665 35.1894 46.0367C29.8009 47.8495 28.8842 38.6653 33.9242 38.5036ZM33.5177 39.3996C32.4184 39.5738 31.8543 40.5818 31.7547 41.6147C31.5597 43.5934 32.0368 45.6717 34.4801 45.3315C35.5379 45.1863 36.1311 44.1866 36.2306 43.2035C36.4214 41.2746 35.9693 39.0096 33.5177 39.3996Z" fill="white"/>
<path d="M85.9799 45.6385C84.0178 46.9286 81.2344 46.099 81.6119 43.4109C81.9022 41.341 84.4285 41.3659 85.9882 41.0091C86.2081 39.3582 84.7479 39.1715 83.4744 39.5075C83.2836 39.5573 82.4871 39.9679 82.4 39.8767C82.2009 38.9309 82.8107 38.7898 83.5864 38.6281C85.0424 38.3253 86.8261 38.5285 86.9796 40.3205C87.1082 41.8263 86.9257 43.5561 86.9713 45.0993C86.9796 45.3357 87.1041 45.5846 87.0792 45.7879C87.0419 46.1363 85.7393 46.3935 85.9799 45.6427V45.6385ZM85.9799 41.8595C84.7313 42.125 82.5452 42.1457 82.5908 43.9004C82.6199 45.149 83.7191 45.5016 84.8143 45.315C84.9843 45.2859 85.9841 44.8089 85.9841 44.7425V41.8595H85.9799Z" fill="white"/>
<path d="M77.9203 40.0716C77.5137 40.0385 77.2524 39.6651 76.8251 39.5241C75.4023 39.0553 74.0251 39.8974 73.6269 41.2954C72.8802 43.9295 74.8133 46.4723 77.5179 44.8836C77.717 44.7674 77.8041 44.4646 78.1194 44.5434C78.2895 45.8128 77.3686 46.1488 76.2776 46.2317C70.6941 46.6548 71.4864 37.2384 77.0284 38.6239C78.0406 38.877 78.082 39.0719 77.9203 40.0716Z" fill="white"/>
<path d="M88.6681 46.0368L88.4648 35.0565C88.4648 34.7329 89.5185 34.6499 89.618 34.7993C89.7715 35.0274 89.5558 39.3167 89.56 40.026C89.5683 41.7517 89.6139 43.552 89.6595 45.2942C89.6637 45.4767 89.7881 45.763 89.7549 45.875C89.6761 46.157 88.9129 45.9994 88.6681 46.0368Z" fill="white"/>
<path d="M72.1499 39.6734C71.2373 39.4951 70.5528 39.466 70.1712 40.4326C69.8103 41.3452 69.9223 43.7262 69.9555 44.7965C69.9845 45.7672 70.4823 46.2442 68.9599 45.987L68.877 38.7857L69.9596 38.6737C70.0302 38.7443 69.8269 39.4246 70.0592 39.4702C70.3413 38.7443 71.1294 38.429 71.8803 38.5991C72.4983 38.736 72.0503 39.2006 72.1499 39.6693V39.6734Z" fill="white"/>
<path d="M79.4882 38.7027C80.4008 38.5409 80.1188 38.794 80.1063 39.3208C80.0648 41.3451 80.1644 43.3694 80.2059 45.3938C80.2142 45.6883 80.4589 45.9662 80.0607 46.0367C78.8287 46.2524 79.1979 45.8127 79.2186 45.0951C79.2725 43.3487 79.1688 41.3866 79.119 39.6195C79.1066 39.1175 78.7457 38.8355 79.4882 38.7027Z" fill="white"/>
<path d="M79.4882 35.2225C79.6665 35.1893 80.0565 35.1354 80.1685 35.293C80.239 35.3967 80.2431 36.0977 80.1975 36.2305C80.1436 36.3923 79.1065 36.7117 79.0153 36.2429C78.9157 35.7203 78.924 35.3262 79.4882 35.2225Z" fill="white"/>
<path d="M190.162 10.4492C190.244 11.3286 190.236 12.9464 190.162 13.83C189.498 21.6162 181.952 25.9179 174.664 23.7981C164.356 20.799 163.804 4.9487 173.548 0.958132C180.911 -2.05761 189.415 2.31459 190.162 10.4492ZM177.008 1.7297C166.094 2.77919 165.148 19.708 175.593 22.3712C181.898 23.9765 187.664 20.2307 188.461 13.7678C189.357 6.48354 184.429 1.02036 177.012 1.73385L177.008 1.7297Z" fill="white"/>
<path d="M110.159 1.99941V10.9471H121.654C121.911 10.9471 122.143 11.5859 122.098 11.8846C122.056 12.1501 121.679 12.54 121.455 12.54H110.159V22.3795H122.446C122.986 22.3795 123.438 23.8438 122.347 23.9724H109.209C108.666 23.9517 108.467 23.5203 108.463 23.0308V1.24858C108.442 0.916727 108.612 0.651243 108.865 0.460425L122.239 0.414795C123.16 0.559982 122.836 1.99941 122.148 1.99941H110.159Z" fill="white"/>
<path d="M150.359 14.5229V23.5203C150.359 23.5535 149.982 23.9185 149.891 23.9476C149.26 24.1384 148.671 23.8024 148.667 23.1221V1.34817C148.667 0.94994 148.833 0.431414 149.31 0.402377C153.641 0.750826 161.041 -0.970679 163.613 3.62138C164.613 5.40926 164.662 8.00603 164.144 9.95154C162.58 15.7964 154.918 14.3237 150.364 14.5229H150.359ZM150.359 12.9341C154.338 12.6188 161.688 14.3735 162.671 8.8813C163.215 5.86556 162.29 3.13189 159.133 2.32714C156.391 1.6261 153.176 2.17781 150.355 1.99944V12.9341H150.359Z" fill="white"/>
<path d="M127.449 0.327607C127.756 0.261236 128.059 0.319311 128.274 0.555759L135.596 10.5405L135.836 10.3953L142.959 0.613833C143.685 -0.120398 144.751 0.763169 144.278 1.63429L136.944 11.6688L144.954 22.5578C145.61 23.4248 144.527 24.4867 143.697 23.7152L135.683 12.8303C135.538 12.793 135.521 12.9257 135.451 12.9962C135.094 13.353 134.629 14.0913 134.302 14.5311C132.008 17.5841 129.817 20.716 127.528 23.7691C126.806 24.495 125.765 23.57 126.196 22.7362L134.343 11.6854L126.993 1.63014C126.723 1.14066 126.847 0.456202 127.449 0.323459V0.327607Z" fill="white"/>
<path d="M86.8759 3.28938C86.8096 3.2396 86.6934 3.46361 86.6602 3.51753C85.3701 5.56675 84.5654 8.44145 83.2421 10.5404C82.931 10.9511 82.5701 11.0631 82.1097 10.7852C81.3837 10.3496 81.84 9.65688 82.0848 9.08442C83.2629 6.33002 84.8848 3.62124 86.1002 0.866832C86.5856 0.15749 87.2285 0.302677 87.6517 0.974686L97.5825 22.8648C97.8604 23.7857 96.8897 24.2876 96.1845 23.7649C93.0111 16.9826 89.9207 10.1339 86.8801 3.28524L86.8759 3.28938Z" fill="white"/>
<path d="M80.3794 13.5478L89.9078 13.5312C90.7209 13.7926 90.6462 15.0163 89.8166 15.1242L81.2049 15.1656L77.011 23.4994C76.4303 24.4991 75.0158 23.8063 75.4887 22.7734C77.0733 20.1144 78.2348 16.6051 79.8941 14.0539C80.0226 13.8548 80.1678 13.6598 80.3835 13.5478H80.3794Z" fill="white"/>
<path d="M47.7702 2.09891V10.3995C47.7702 10.4368 47.343 10.8309 47.2475 10.8724C46.6087 11.1461 46.1483 10.5944 46.0819 10.0012C45.7791 7.31735 46.3059 4.0942 46.0819 1.35223C46.1524 0.73415 46.4138 0.460369 47.0235 0.402294C49.0271 0.219773 52.5531 0.2737 54.5899 0.406442C59.352 0.721706 63.6786 4.01953 65.118 8.5784C65.3379 9.27945 65.8439 10.5861 64.8733 10.8765C63.7781 11.2084 63.7574 9.83531 63.5251 9.17574C62.5378 6.384 60.7499 4.17716 57.9955 2.97003C54.7682 1.55964 51.2049 2.25654 47.7785 2.09061L47.7702 2.09891Z" fill="white"/>
<path d="M47.7697 22.2758H55.1826C58.4223 22.2758 62.1474 18.8204 63.2674 15.9415C63.62 15.0414 63.6698 13.1332 64.9889 13.5729C65.7273 13.8176 65.3706 14.8837 65.2295 15.4188C64.0307 19.9694 59.6046 23.6572 54.8839 23.9724C52.7517 24.1135 49.0101 24.1674 46.9152 23.9724C46.293 23.9144 46.1271 23.6364 46.069 23.0266C45.8035 20.2722 46.2722 17.0823 46.0814 14.2822C46.2681 13.0751 47.7656 13.5439 47.7656 14.079V22.28L47.7697 22.2758Z" fill="white"/>
<path d="M1.46812 13.7595C1.83316 14.7343 2.01153 15.7257 2.47613 16.6798C5.41721 22.6781 12.942 24.018 18.119 19.9444C18.6251 19.5462 19.3344 18.4345 20.0645 19.289C20.8651 20.2265 18.7869 21.6162 18.0734 22.0808C12.4857 25.7104 4.8655 24.0138 1.45982 18.2935C0.949594 17.4348 -0.0293821 15.3399 -0.000344727 14.3734C0.0245445 13.5272 0.845889 13.27 1.46812 13.7595Z" fill="white"/>
<path d="M10.7349 0.4354C13.6594 0.219694 16.6876 1.16134 18.9608 2.99484C19.5374 3.45944 20.8192 4.39279 19.8154 5.13531C19.0479 5.70362 18.2888 4.57116 17.7122 4.14389C12.4233 0.232138 4.67856 2.20253 2.22283 8.33358C1.90342 9.12589 1.70845 11.4696 0.472285 10.8308C-0.303429 10.4284 0.0823537 9.51582 0.260726 8.85625C1.52178 4.21027 5.9728 0.792146 10.7349 0.4354Z" fill="white"/>
<path d="M26.6769 10.3994C26.5359 11.0424 25.2292 11.1544 25.0923 10.2957L25.084 1.1531C25.1047 0.692648 25.4698 0.381532 25.9261 0.406422L40.9509 0.418866C41.6146 0.568202 41.9257 1.26095 41.5067 1.82926C41.4735 1.87074 41.179 2.10304 41.1541 2.10304H26.6769V10.4036V10.3994Z" fill="white"/>
<path d="M26.6767 22.2757H40.8552C41.7761 22.2757 42.0872 23.7981 41.0502 23.9598L25.4861 23.9142L25.1377 23.5658L25.0879 14.0788C25.2538 13.5727 25.7972 13.3778 26.2784 13.581C26.3241 13.6018 26.6767 13.9502 26.6767 13.9751V22.2757Z" fill="white"/>
<path d="M28.44 11.3618L39.2668 11.3411C40.3826 11.3908 40.5983 12.8261 39.4659 13.0335H28.5146C27.4942 12.9174 27.5522 11.6605 28.44 11.3618Z" fill="white"/>
<path d="M70.934 13.4485C71.5396 13.378 71.8092 13.7264 71.859 14.2698C72.1204 17.1445 71.6516 20.4092 71.859 23.3254C71.7553 24.0928 70.6934 24.2172 70.3117 23.566L70.2578 14.1703C70.2661 13.7762 70.5482 13.49 70.934 13.4443V13.4485Z" fill="white"/>
<path d="M70.8303 0.427121C71.465 0.29023 71.801 0.646976 71.8591 1.24847C72.1204 4.08998 71.6558 7.31729 71.8591 10.2003C71.7471 11.1544 70.3616 11.229 70.262 10.1049C70.0048 7.26336 70.4653 4.03606 70.262 1.15306C70.2662 0.825349 70.5068 0.501789 70.8345 0.431269L70.8303 0.427121Z" fill="white"/>
<path d="M96.777 1.67583C96.777 2.38932 96.1962 2.97007 95.4827 2.97007C94.7692 2.97007 94.1885 2.38932 94.1885 1.67583C94.1885 0.96234 94.7692 0.381592 95.4827 0.381592C96.1962 0.381592 96.777 0.96234 96.777 1.67583ZM96.5405 1.67168C96.5405 1.09093 96.0676 0.618039 95.4869 0.618039C94.9061 0.618039 94.4332 1.09093 94.4332 1.67168C94.4332 2.25243 94.9061 2.72533 95.4869 2.72533C96.0676 2.72533 96.5405 2.25243 96.5405 1.67168Z" fill="white"/>
<path d="M96.1302 2.29378C95.9933 2.29793 95.8564 2.31037 95.7278 2.24815C95.5578 2.16518 95.342 1.38117 95.3337 2.29793C95.2383 2.28133 94.9604 2.32282 94.9355 2.29793C94.8899 2.2523 94.9687 1.20695 94.9355 1.00369C95.3337 0.991242 96.3086 0.875093 96.1178 1.53051C96.0224 1.84992 95.6532 1.68814 96.1302 2.29793V2.29378Z" fill="white"/>
</g>
<defs>
<clipPath id="clip0_369_6839">
<rect width="190.22" height="64.9194" fill="white"/>
</clipPath>
</defs>
</svg>
