<svg width="135" height="50" viewBox="0 0 135 50" fill="none" xmlns="http://www.w3.org/2000/svg">
<g clip-path="url(#clip0_105_2436)">
<path fill-rule="evenodd" clip-rule="evenodd" d="M25.7086 16.7233C25.3156 16.7233 24.9907 16.5955 24.7338 16.3397C24.4769 16.084 24.3483 15.7618 24.3483 15.3728C24.3483 14.9944 24.4792 14.6745 24.7413 14.4137C25.0033 14.1527 25.3257 14.0222 25.7086 14.0222C26.0916 14.0222 26.414 14.1527 26.6762 14.4137C26.9381 14.6745 27.0692 14.9944 27.0692 15.3728C27.0692 15.7618 26.9406 16.084 26.6837 16.3397C26.4266 16.5955 26.1017 16.7233 25.7086 16.7233ZM22.5746 20.2484L26.9037 19.6984V28.86L26.9188 30.0222C26.9188 30.7154 26.9588 31.2227 27.0391 31.5436C27.1192 31.8651 27.2744 32.1327 27.505 32.3465C27.7855 32.6218 28.3357 32.8191 29.0533 32.9152V32.9735H22.4094V32.9132C23.0173 32.845 23.4413 32.7393 23.702 32.5915C23.9625 32.4437 24.173 32.1917 24.3334 31.8355C24.4436 31.6013 24.5211 31.2477 24.5663 30.7744C24.6113 30.3011 24.634 29.655 24.634 28.7593V24.6655C24.634 23.617 24.6088 22.5952 24.5588 22.1727C24.5085 21.7501 24.3984 21.4067 24.2281 21.1418C24.0576 20.8571 23.8523 20.6509 23.6118 20.5235C23.3713 20.3965 23.0272 20.3228 22.5798 20.3127L22.5746 20.2484Z" fill="white"/>
<path fill-rule="evenodd" clip-rule="evenodd" d="M89.4062 25.6619V28.8504L89.4212 30.0154C89.4212 30.7104 89.4612 31.2188 89.5415 31.5407C89.6216 31.8623 89.7767 32.1307 90.0074 32.345C90.2879 32.6211 90.9891 32.7834 91.7357 32.9077V32.9735H84.9117V32.9102C85.513 32.829 85.9438 32.7393 86.2045 32.5917C86.465 32.4439 86.6753 32.1919 86.8357 31.8357C86.9459 31.6015 87.0237 31.2479 87.0687 30.7745C87.1139 30.3011 87.1364 29.655 87.1364 28.7593V24.3433C87.1364 23.2948 87.1114 22.5594 87.0613 22.1368C87.0111 21.7142 86.9009 21.3709 86.7306 21.1062C86.5601 20.8213 86.3549 20.6151 86.1143 20.4877C85.8738 20.3607 85.5368 20.3388 85.0797 20.3226L85.0771 20.2511L88.9522 19.6984C89.2914 20.6507 89.4115 22.1923 89.4062 25.6619Z" fill="white"/>
<path fill-rule="evenodd" clip-rule="evenodd" d="M89.8961 23.1601C89.9944 22.461 90.2781 21.7806 90.6647 21.2466C91.2446 20.4573 91.8812 19.935 92.8931 19.6984C93.5652 19.5414 94.2347 19.6447 94.6915 19.901C95.0516 20.103 95.2755 20.411 95.369 20.815C95.4377 21.1128 95.4062 21.3786 95.2748 21.6122C95.1434 21.846 94.9399 21.9958 94.6647 22.0622C94.3417 22.1399 94.0272 22.0589 93.7211 21.8183L93.1544 21.3826C92.7072 21.0529 92.2463 20.945 91.7715 21.0595C91.1256 21.215 90.1759 22.1478 89.9629 23.1944L89.8961 23.1601Z" fill="white"/>
<path fill-rule="evenodd" clip-rule="evenodd" d="M35.2184 25.6619V28.8504L35.2333 30.0154C35.2333 30.7104 35.2733 31.2188 35.3536 31.5407C35.4337 31.8623 35.5889 32.1307 35.8195 32.345C36.1 32.6211 36.8013 32.7834 37.5479 32.9077V32.9735H30.7239V32.9102C31.3252 32.829 31.7558 32.7393 32.0165 32.5917C32.277 32.4439 32.4875 32.1919 32.6479 31.8357C32.7581 31.6015 32.8358 31.2479 32.8808 30.7745C32.926 30.3011 32.9485 29.655 32.9485 28.7593V24.3433C32.9485 23.2948 32.9235 22.5594 32.8735 22.1368C32.8232 21.7142 32.7131 21.3709 32.5427 21.1062C32.3722 20.8213 32.1668 20.6151 31.9265 20.4877C31.686 20.3607 31.3489 20.3388 30.8918 20.3226L30.8893 20.2511L34.7644 19.6984C35.1035 20.6507 35.2236 22.1923 35.2184 25.6619Z" fill="white"/>
<path fill-rule="evenodd" clip-rule="evenodd" d="M35.7083 23.1601C35.8066 22.461 36.0903 21.7806 36.4768 21.2466C37.0567 20.4573 37.6933 19.935 38.7053 19.6984C39.3774 19.5414 40.0469 19.6447 40.5037 19.901C40.8637 20.103 41.0877 20.411 41.1809 20.815C41.2497 21.1128 41.2184 21.3786 41.087 21.6122C40.9555 21.846 40.7521 21.9958 40.4768 22.0622C40.1538 22.1399 39.8393 22.0589 39.5333 21.8183L38.9665 21.3826C38.5193 21.0529 38.0583 20.945 37.5835 21.0595C36.9377 21.215 35.988 22.1478 35.7751 23.1944L35.7083 23.1601Z" fill="white"/>
<path fill-rule="evenodd" clip-rule="evenodd" d="M52.9526 30.1525L53.0347 30.1704C52.7692 31.1394 52.0282 31.9818 51.2601 32.5012C50.4901 33.0223 49.5871 33.2499 48.3245 33.2499C46.3002 33.2499 44.7118 32.6358 43.5594 31.4081C42.437 30.2011 41.8759 28.6764 41.8759 26.8348C41.8759 25.9345 42.0311 25.0445 42.3418 24.1644C42.6524 23.2845 43.0785 22.5327 43.6197 21.9083C44.2307 21.1924 44.98 20.645 45.8669 20.2664C46.7537 19.8879 47.7232 19.6984 48.7753 19.6984C50.2284 19.6984 51.3658 20.0311 52.1875 20.6961C52.6885 21.1055 52.9391 21.5554 52.9391 22.0466C52.9391 22.3741 52.834 22.6478 52.6235 22.8676C52.4131 23.0877 52.1576 23.1976 51.8569 23.1976C51.2054 23.1976 50.7244 22.7118 50.414 21.7396C50.2739 21.2894 50.1614 20.9825 50.0764 20.8189C49.9914 20.6553 49.869 20.5119 49.7091 20.3892C49.3993 20.1539 49.0194 20.0361 48.5697 20.0361C47.9797 20.0361 47.435 20.205 46.9355 20.5426C46.4955 20.8393 46.1232 21.2102 45.8184 21.6552C45.5136 22.1004 45.2461 22.6605 45.0162 23.3356C44.6662 24.3692 44.4914 25.3821 44.4914 26.3743C44.4914 27.2851 44.6513 28.1751 44.9716 29.0447C45.2913 29.9145 45.7266 30.6407 46.2768 31.224C47.137 32.1448 48.3078 32.7084 49.4018 32.6812C50.4221 32.6558 51.2898 32.3189 52.0051 31.6342C52.5843 31.0764 52.7478 30.6959 52.9526 30.1525Z" fill="white"/>
<path fill-rule="evenodd" clip-rule="evenodd" d="M61.6434 21.1819C60.1432 21.3249 58.7 22.8901 58.7 26.2902V28.7958L58.7152 29.9301C58.7152 30.6251 58.7551 31.1337 58.8351 31.4556C58.915 31.7774 59.07 32.0456 59.2999 32.2601C59.5799 32.536 60.0939 32.7485 60.8417 32.8725L60.8448 32.9735H54.2057V32.8698C54.8106 32.8023 55.2376 32.692 55.4983 32.5439C55.7588 32.3957 55.9693 32.143 56.1297 31.7851C56.2399 31.5502 56.3176 31.1953 56.3627 30.7203C56.4077 30.2454 56.4303 29.5583 56.4303 28.6593V16.4637C56.4303 15.4217 56.4051 14.6863 56.3551 14.2571C56.3049 13.8281 56.1947 13.4809 56.0246 13.2153C55.8539 12.9291 55.6486 12.7247 55.4081 12.6023C55.1676 12.4797 54.8219 12.403 54.3709 12.3721V12.3313L58.7 11.779V23.0246C58.9996 22.5574 59.3514 22.2309 59.6321 21.9975C60.3635 21.3893 61.0723 21.1174 61.6638 21.1021L61.6434 21.1819Z" fill="white"/>
<path fill-rule="evenodd" clip-rule="evenodd" d="M68.0798 32.2601C67.8492 32.0456 67.6938 31.7774 67.6139 31.4552C67.5336 31.1335 67.4936 30.6251 67.4936 29.9301L67.4787 28.765V24.2355C67.4787 23.2035 67.3757 22.4294 67.1704 21.9133C66.9648 21.3973 66.5864 20.9604 66.0355 20.6026C65.2637 20.1226 64.2535 19.7852 63.0713 19.7852C62.1392 19.7852 61.4443 19.9074 60.7344 20.3171C60.031 20.7229 59.7334 21.0963 59.7334 21.0963L59.7743 21.1509C60.4636 20.5656 61.1917 20.3781 62.2177 20.3781C63.1476 20.3781 63.979 20.7362 64.4888 21.3391C64.7486 21.6561 64.9337 22.0291 65.0437 22.4583C65.1535 22.8875 65.2088 23.47 65.2088 24.2056V29.1177C65.2088 29.9761 65.1739 30.6253 65.1038 31.0646C65.0338 31.5039 64.9089 31.8513 64.729 32.1068C64.5488 32.352 64.3463 32.5259 64.1214 32.6281C63.8963 32.7303 63.5192 32.817 62.9893 32.8883V32.9735H69.6281V32.8883C68.8764 32.7455 68.3603 32.536 68.0798 32.2601Z" fill="white"/>
<path fill-rule="evenodd" clip-rule="evenodd" d="M98.5779 26.321C98.5779 28.0992 98.9688 29.6063 99.7505 30.8427C100.632 32.2224 101.709 32.9121 102.982 32.9121C103.523 32.9121 104.049 32.7588 104.561 32.4525C105.072 32.1459 105.512 31.7168 105.883 31.1648C106.274 30.5926 106.59 29.8746 106.83 29.0111C107.071 28.1475 107.191 27.3121 107.191 26.5048C107.191 25.667 107.063 24.8212 106.808 23.9681C106.552 23.1149 106.209 22.3816 105.778 21.7681C104.956 20.6136 103.949 20.0361 102.757 20.0361C101.624 20.0361 100.647 20.6443 99.8257 21.8604C98.9938 23.0764 98.5779 24.5633 98.5779 26.321ZM95.8423 26.4971C95.8423 24.8397 96.4436 23.3613 97.646 22.0618C99.109 20.4866 100.858 19.6984 102.892 19.6984C104.926 19.6984 106.67 20.4866 108.123 22.0618C109.326 23.3716 109.927 24.8552 109.927 26.5126C109.927 28.1496 109.356 29.6075 108.213 30.8865C106.81 32.4621 105.036 33.2499 102.892 33.2499C100.747 33.2499 98.9687 32.4621 97.5558 30.8865C97.0046 30.2724 96.5811 29.5871 96.2857 28.8298C95.9899 28.0729 95.8423 27.2952 95.8423 26.4971Z" fill="white"/>
<path fill-rule="evenodd" clip-rule="evenodd" d="M110.082 19.9287H115.914L115.914 20.0123C115.468 20.0853 115.071 20.1833 114.911 20.291C114.59 20.4873 114.43 20.8011 114.43 21.2325C114.43 21.497 114.48 21.806 114.579 22.1589C114.679 22.5118 114.965 23.2823 115.234 23.9587L117.658 30.0029L120.108 23.7087C120.469 22.7772 120.649 21.8468 120.649 21.3957C120.649 20.9057 120.494 20.5478 120.183 20.3221C120.023 20.2044 119.727 20.1017 119.296 20.0134V19.9287H123.445V20.0123C122.884 20.1496 122.433 20.3794 122.092 20.7323C121.661 21.1736 121.165 22.3559 120.604 23.7676L116.803 33.2499H116.699L112.633 23.3262C112.052 21.9241 111.636 20.8207 111.386 20.5265C111.245 20.3695 111.09 20.2544 110.92 20.1809C110.749 20.1076 110.449 20.0366 110.082 19.9971V19.9287Z" fill="white"/>
<path fill-rule="evenodd" clip-rule="evenodd" d="M126.237 24.2501C126.339 23.0246 126.783 21.9291 127.426 21.1718C128.069 20.4147 128.82 20.0361 129.678 20.0361C130.187 20.0361 130.665 20.1818 131.114 20.4735C131.563 20.7652 131.922 21.1617 132.192 21.6629C132.47 22.1769 132.646 22.6708 132.726 23.5918C132.726 23.5918 132.741 23.9536 132.549 24.1161C132.369 24.2677 132.012 24.2918 131.78 24.3206C130.269 24.5083 127.355 24.4758 127.355 24.4758L127.347 24.6248H135C135 23.3356 134.634 22.2614 133.903 21.4019C133.432 20.8496 132.855 20.4274 132.174 20.1359C131.493 19.8443 130.751 19.6984 129.949 19.6984C128.446 19.6984 127.108 20.1741 125.936 21.1257C124.322 22.4355 123.516 24.2411 123.516 26.5431C123.516 27.6799 123.714 28.6931 124.1 29.5884C124.117 29.6285 124.135 29.6676 124.152 29.7074C124.192 29.7932 124.23 29.8792 124.273 29.9627C124.533 30.4805 124.864 30.9578 125.27 31.3936C126.431 32.631 128.032 33.2499 130.072 33.2499C130.094 33.2499 130.113 33.2484 130.134 33.2484C130.158 33.2484 130.181 33.2499 130.205 33.2499L130.204 33.2468C131.406 33.231 132.283 33.0018 133.032 32.4954C133.806 31.9717 134.553 31.1227 134.82 30.1459L134.745 30.1283C134.538 30.6758 134.366 31.0591 133.782 31.6214C133.061 32.3116 132.187 32.6511 131.158 32.6766C130.056 32.7042 128.876 32.136 128.009 31.2078C127.454 30.6201 127.015 29.888 126.693 29.0113C126.488 28.4551 126.348 27.8902 126.273 27.3173L126.264 27.3153L126.271 27.3088C126.178 26.7848 126.131 26.2534 126.131 25.7145C126.131 25.4897 126.166 24.7662 126.237 24.2501Z" fill="white"/>
<path fill-rule="evenodd" clip-rule="evenodd" d="M78.0947 26.9208C77.6763 27.6375 77.091 27.9957 76.3381 27.9957C75.5958 27.9957 74.9866 27.6349 74.511 26.9127C74.0351 26.1907 73.7975 25.2562 73.7975 24.1094C73.7975 23.5573 73.8654 23.0049 74.0013 22.453C74.1372 21.9008 74.3201 21.4336 74.5502 21.0512C75.0102 20.2866 75.6167 19.9044 76.3696 19.9044C76.9969 19.9044 77.5091 20.1965 77.9066 20.7803C78.4501 21.5664 78.7221 22.6175 78.7221 23.9341C78.7221 25.2084 78.5129 26.2039 78.0947 26.9208ZM75.1211 32.8551H78.0162C79.8265 32.8551 80.9513 33.7728 80.9193 35.3301V35.4661C80.9193 37.2086 78.8858 38.6188 76.3774 38.6158C73.869 38.6129 71.8355 37.1979 71.8355 35.4556V35.3301C71.8355 33.8912 73.3458 32.8435 75.1211 32.8551ZM83.252 19.8885C82.9362 19.6651 82.521 19.5532 82.0059 19.5532C81.5434 19.5532 81.1148 19.6359 80.7205 19.8006C80.3262 19.9657 79.8817 20.245 79.3875 20.6386C78.3379 19.9151 77.3094 19.5532 76.3019 19.5532C75.6407 19.5532 74.9953 19.6914 74.3655 19.9675C73.7357 20.2438 73.1901 20.6312 72.7283 21.1303C71.9412 21.9692 71.5476 22.9248 71.5476 23.9975C71.5476 24.8364 71.7993 25.6038 72.3027 26.2993C72.8062 26.9951 73.6234 27.6059 74.536 28.0306C73.6457 28.0645 73.0768 28.2203 72.6514 28.4847C71.9557 28.9166 71.6194 29.5199 71.613 30.2775C71.6054 31.1738 71.9804 31.6028 72.5884 31.9349C71.3143 32.4367 70.671 33.6056 70.6579 35.0338C70.6521 35.6618 70.8381 36.1488 70.8381 36.1488C71.4007 37.8492 73.6241 39 76.5077 39C76.5156 39 76.5234 38.9996 76.5311 38.9996C76.5378 38.9996 76.5443 39 76.5509 39C76.5948 39 76.637 38.998 76.6804 38.9974C76.7297 38.9965 76.7792 38.996 76.8282 38.9945C77.6967 38.9699 78.467 38.8311 79.1472 38.619C79.2007 38.6024 79.2538 38.5859 79.3062 38.5684C79.3278 38.5612 79.3494 38.5539 79.3708 38.5464C79.6133 38.4636 79.8446 38.3706 80.0632 38.2684C80.5475 38.0464 80.9762 37.79 81.3501 37.5194C82.4211 36.7426 82.9569 35.862 82.9569 34.4792C82.9569 33.2236 82.4944 32.35 81.5701 31.6583C81.0971 31.307 80.5457 31.0492 79.9154 30.8841C79.2851 30.7194 78.5129 30.6369 77.5989 30.6369H74.9989C73.6855 30.6369 73.0289 30.2965 73.0289 29.6154C73.0289 28.8389 73.6385 28.5391 75.1663 28.4905C76.2935 28.4547 76.8285 28.4014 77.1699 28.331C77.8744 28.1928 78.5318 27.9213 79.142 27.5169C80.3619 26.7085 80.972 25.6073 80.972 24.2133C80.972 23.0963 80.5245 21.9728 79.6691 20.9194L79.5552 20.79C79.8763 20.4621 80.4508 20.3285 80.9122 20.3673C81.277 20.3978 81.5607 20.4948 81.7597 20.7503L82.1205 21.229C82.3959 21.5909 82.703 21.7716 83.0417 21.7716C83.2638 21.7716 83.4491 21.6892 83.5973 21.5242C83.7456 21.3593 83.8198 21.1547 83.8198 20.9097C83.8198 20.5057 83.6304 20.1651 83.252 19.8885Z" fill="white"/>
<path fill-rule="evenodd" clip-rule="evenodd" d="M14.5754 19.5541C13.6487 20.4902 12.2819 20.9895 10.4873 21.0632C9.37634 21.1088 6.57466 21.0391 6.57466 21.0391C6.37482 21.0391 6.21261 20.8737 6.21261 20.6696C6.21261 20.4654 6.37482 20.3 6.57466 20.3H7.66512L7.67304 18.8034L7.68798 17.1859L7.71769 15.7665L7.73065 15.5947H5.59365C5.22224 15.5947 4.92104 15.2872 4.92104 14.908C4.92104 14.5286 5.22224 14.2213 5.59365 14.2213H7.73587C7.73587 14.2213 7.80141 13.2305 7.83831 13.0846C7.90817 12.8098 8.00268 12.6115 8.12205 12.4892C8.32728 12.1942 8.7203 11.9453 9.01879 11.8334C9.2766 11.7371 9.59238 11.7158 10.0648 11.6933C11.3817 11.6624 12.4391 11.838 13.2449 12.2034C14.0018 12.5497 14.6348 13.119 15.143 13.9125C15.6509 14.706 15.9108 15.33 15.9108 16.3472C15.9108 17.7311 15.502 18.6185 14.5754 19.5541ZM20.075 24.5828C19.7463 23.942 19.3077 23.3231 18.7599 22.8548C18.2117 22.3873 17.5889 22.0157 16.8917 21.7411C16.3102 21.512 15.7216 21.3543 15.1268 21.2599C16.3179 20.9566 17.3014 20.4325 18.0725 19.6824C18.919 18.8586 19.3428 17.7752 19.3428 16.4323C19.3428 15.2114 19.0141 14.2043 18.3562 13.4108C17.6986 12.6175 16.8618 12.0277 15.8455 11.6408C15.2075 11.3967 14.5451 11.2288 13.8574 11.1375C13.1727 11.0463 12.4531 11.0006 11.699 11.0002L11.7148 11H0.305877V11.07C0.843999 11.1311 1.25466 11.2178 1.55369 11.3294C1.85237 11.4415 2.1514 11.6602 2.45026 11.9854C2.56962 12.1076 2.66432 12.306 2.73435 12.5808C2.80385 12.8554 2.87388 13.3976 2.92357 13.743C2.97326 14.0895 2.99828 14.7196 3.01827 15.0956C3.03789 15.4724 3.07876 16.2455 3.07876 16.6121C3.07876 16.6464 3.07894 16.678 3.07894 16.7121H5.843C6.05544 16.7121 6.22737 16.8878 6.22737 17.1045C6.22737 17.3212 6.05544 17.4969 5.843 17.4969H3.08272C3.08524 17.7576 3.08884 18.0024 3.0937 18.2294C3.10378 18.6977 3.10882 18.9885 3.10882 19.4357V20.0908L3.09982 21.919C3.09982 21.919 4.92987 21.8914 7.63037 21.9868C7.63037 21.9868 10.7961 22.1059 12.1033 22.2609C12.5316 22.3116 12.9257 22.3767 13.3645 22.5186C13.9022 22.7018 14.3955 22.9511 14.844 23.2663C15.2924 23.5821 15.6809 23.9582 16.0097 24.3955C16.3388 24.8333 16.6061 25.2553 16.7955 25.7738C16.9846 26.2929 17.0271 26.5278 17.0271 27.1177C17.0271 28.1555 16.8731 28.9791 16.4149 29.7213C15.956 30.4645 15.309 31.0598 14.472 31.507C13.834 31.8531 13.1763 32.0667 12.499 32.1478C11.8214 32.2294 11.1644 32.2402 10.5869 32.2402C9.90888 32.2402 9.3911 32.1638 9.0323 32.0112C8.67367 31.8585 8.40452 31.6706 8.22521 31.4466C7.98612 31.1214 7.87054 30.7391 7.82103 30.2404C7.7708 29.7419 7.70455 28.989 7.68492 28.2156C7.68492 27.9465 7.68186 27.6353 7.67574 27.3384H4.83589C4.61535 27.3384 4.43657 27.1559 4.43657 26.9307C4.43657 26.7056 4.61535 26.523 4.83589 26.523H7.6644C7.65792 26.1299 7.65504 26.0547 7.65504 25.604V22.8037L3.09406 22.7366L3.10576 24.205H4.59356C4.91186 24.205 5.17003 24.4686 5.17003 24.7938C5.17003 25.1187 4.91186 25.3823 4.59356 25.3823H3.09208C3.08254 25.9236 3.07318 26.426 3.064 26.8859C3.05355 27.3741 3.04887 27.761 3.04887 28.0455C3.04887 28.1657 3.04761 28.4957 3.04491 28.6698H5.98054C6.24591 28.6698 6.46105 28.8894 6.46105 29.1603C6.46105 29.4313 6.24591 29.6509 5.98054 29.6509H3.00729C2.9864 29.9347 2.95688 30.2095 2.91439 30.4711C2.86452 30.7762 2.80961 31.0462 2.75002 31.2797C2.69043 31.514 2.61049 31.6918 2.51111 31.814C2.2317 32.1395 1.86821 32.3937 1.41993 32.5768C0.971283 32.7599 0.497794 32.8032 0 32.8843V32.9736H11.3531L11.112 32.9698L11.6007 32.9736C12.4774 32.9736 13.3841 32.9428 14.3208 32.8819C15.2573 32.8207 16.1042 32.6481 16.8618 32.3628C17.3 32.2005 17.7386 31.9614 18.1769 31.6458C18.615 31.3308 19.0141 30.9492 19.3725 30.5014C19.7312 30.054 20.0198 29.5353 20.2396 28.9449C20.4585 28.3551 20.5681 27.6937 20.5681 26.9612C20.5681 26.1479 20.4038 25.2239 20.075 24.5828Z" fill="white"/>
</g>
<defs>
<clipPath id="clip0_105_2436">
<rect width="135" height="50" fill="white"/>
</clipPath>
</defs>
</svg>
