<svg width="49" height="48" viewBox="0 0 49 48" fill="none" xmlns="http://www.w3.org/2000/svg">
<path d="M40.0873 19.4925C39.3673 11.1 32.5798 4.5 24.3448 4.5C16.1098 4.5 9.32232 11.1075 8.60232 19.5H4.88232V34.515H14.4448V19.5H10.8673C11.5723 12.345 17.3473 6.75 24.3523 6.75C31.3573 6.75 37.1248 12.345 37.8373 19.4925H34.1923V34.5075H37.2598C35.7823 38.4375 31.9348 41.25 27.4198 41.25H27.3898V39.03H22.8898V42.375V43.5H27.4198C33.1948 43.5 38.0773 39.6975 39.6373 34.5075H43.8898V19.4925H40.1023H40.0873ZM12.1948 32.265H7.13232V21.75H12.1948V32.265ZM41.6248 32.2575H36.4273V21.7425H41.6248V32.2575Z" fill="#00A870"/>
</svg>
