<svg width="362" height="65" viewBox="0 0 362 65" fill="none" xmlns="http://www.w3.org/2000/svg">
<g clip-path="url(#clip0_202_5120)">
<path d="M144.758 45.2342C143.922 45.2342 143.238 45.8897 143.238 46.7162C143.238 47.1151 143.381 47.4381 143.637 47.6946H145.879C146.136 47.4381 146.278 47.1151 146.278 46.7162C146.278 45.8802 145.594 45.2342 144.758 45.2342ZM134.09 56.235H137.13V53.993H133.007L134.09 56.235ZM168.992 60.2154L164.252 54.8575L168.479 50.0506H165.838L162.038 54.5345V45.4527L159.796 46.5737V59.6359C159.796 59.9589 160.053 60.2154 160.338 60.2154H162.038V55.152L166.237 60.2154H168.983H168.992ZM145.879 60.2154V50.0506H143.637V59.6739C143.637 59.9589 143.894 60.2154 144.179 60.2154H145.879ZM126.167 49.8701C124.248 49.8701 122.225 50.8866 121.208 52.3685V63.5118C121.208 63.7968 121.465 64.0533 121.75 64.0533H123.45V53.271C123.992 52.473 125.008 51.9696 126.129 51.9696C127.868 51.9696 129.131 53.271 129.131 55.114C129.131 56.957 127.868 58.2964 126.129 58.2964H124.533V60.2154H126.158C129.159 60.2154 131.363 58.0779 131.363 55.114C131.363 52.1501 129.121 49.8701 126.158 49.8701M116.107 56.8145V52.0361H119.004V50.0506H116.107V46.9727L113.865 48.0936V57.28C113.865 59.1609 114.986 60.2059 116.981 60.2059H119.878V58.2869H117.56C116.477 58.2869 116.116 57.8879 116.116 56.805M152.786 49.7561C150.981 49.7561 149.1 50.6966 148.15 52.0741V59.6739C148.15 59.9589 148.406 60.2154 148.691 60.2154H150.392V52.9765C150.933 52.2925 151.807 51.8556 152.776 51.8556C154.334 51.8556 155.455 53.081 155.455 54.715V60.2154H157.659V54.6485C157.659 51.8651 155.559 49.7656 152.776 49.7656M139.115 59.6644C139.115 59.9494 139.372 60.2059 139.657 60.2059H141.357V45.4432L139.115 46.5642V59.6549V59.6644ZM95.2736 51.7606C96.2046 52.7485 96.6701 53.9455 96.6701 55.38C96.6701 56.8145 96.2046 58.0304 95.2736 59.0184C94.3617 60.0064 93.2407 60.4909 91.9487 60.4909C90.6567 60.4909 89.5453 60.0254 88.8138 59.0754V60.2154H86.3153V46.5737H88.8138V51.6846C89.5453 50.7346 90.5902 50.2691 91.9487 50.2691C93.3072 50.2691 94.3712 50.7726 95.2736 51.7606ZM91.4832 58.1064C92.8037 58.1064 94.1717 57.1945 94.1717 55.38C94.1717 53.765 93.0032 52.6535 91.4832 52.6535C89.9633 52.6535 88.8138 53.765 88.8138 55.38C88.8138 56.7005 89.6593 58.1064 91.4832 58.1064ZM104.536 50.5351H107.205L103.681 60.2059C102.674 62.9893 101.05 64.1768 98.5701 64.0438V61.7259C99.9001 61.7449 100.641 61.2224 101.107 59.9019L97.1451 50.5351H99.8716L102.389 57.033L104.536 50.5351ZM157.925 11.1678C152.909 11.1678 147.76 13.6568 146.687 18.8817C146.658 19.0242 146.753 19.1667 146.896 19.1952L151.874 20.2022C152.007 20.2307 152.13 20.1547 152.178 20.0312C153.09 17.3522 154.695 16.2122 157.659 16.1743C163.311 16.1743 163.121 21.2851 163.14 22.6816H156.889C154.571 22.6816 152.539 23.0236 150.867 23.7076C145.898 25.6171 144.274 30.956 146.658 35.5064C147.485 37.0453 149.708 39.6198 155.246 39.6198C159.407 39.6198 162.295 37.9953 163.834 34.7844C164.128 35.5064 165.116 37.9668 165.401 38.6888C165.449 38.8123 165.563 38.8883 165.696 38.8883H168.736C168.878 38.8883 169.002 38.7743 169.002 38.6223V22.6721C169.002 22.4251 170.047 11.1583 157.934 11.1583L157.925 11.1678ZM151.75 30.9465C151.75 27.8685 154.476 26.9565 157.393 26.9945H163.131V30.0915C162.808 30.937 160.936 34.9459 156.205 34.9459C153.679 34.9839 151.674 33.5874 151.741 30.9465H151.75ZM135.857 16.2597C135.201 15.0438 132.741 11.3958 126.766 11.3958C119.603 11.3958 114.397 17.3332 114.397 25.5126C114.397 33.6919 119.46 39.6293 126.718 39.6293C133.32 39.6293 136.056 35.5064 136.598 34.5659L138.26 38.6888C138.308 38.8123 138.422 38.8883 138.555 38.8883H141.766C141.908 38.8883 142.032 38.7743 142.032 38.6223V4.04298C142.032 3.90049 141.918 3.77699 141.766 3.77699H136.123C135.98 3.77699 135.857 3.89099 135.857 4.04298V16.2692V16.2597ZM134.84 22.0451V29.2175C133.102 32.4664 130.575 33.8439 127.82 33.8439C123.84 33.8439 120.344 30.3385 120.344 25.5126C120.344 20.6867 123.384 17.1812 127.82 17.1812C131.971 17.1812 134.204 20.0027 134.84 22.0546V22.0451ZM99.9096 11.1678C94.8937 11.1678 89.7447 13.6568 88.6713 18.8817C88.6428 19.0242 88.7378 19.1667 88.8803 19.1952L93.8582 20.2022C93.9912 20.2307 94.1147 20.1547 94.1622 20.0312C95.0742 17.3522 96.6796 16.2122 99.6436 16.1743C105.296 16.1743 105.106 21.2851 105.125 22.6816H98.8741C96.5561 22.6816 94.5232 23.0236 92.8512 23.7076C87.8828 25.6171 86.2583 30.956 88.6428 35.5064C89.4693 37.0453 91.6922 39.6198 97.2306 39.6198C101.392 39.6198 104.279 37.9953 105.818 34.7844C106.113 35.5064 107.101 37.9668 107.386 38.6888C107.433 38.8123 107.547 38.8883 107.68 38.8883H110.72C110.863 38.8883 110.986 38.7743 110.986 38.6223V22.6721C110.986 22.4251 112.031 11.1583 99.9191 11.1583L99.9096 11.1678ZM93.7347 30.9465C93.7347 27.8685 96.4611 26.9565 99.3776 26.9945H105.115V30.0915C104.792 30.937 102.921 34.9459 98.1901 34.9459C95.6631 34.9839 93.6587 33.5874 93.7252 30.9465H93.7347ZM83.8644 22.9856V38.6318C83.8644 38.7743 83.7504 38.8978 83.5984 38.8978H77.9555C77.813 38.8978 77.6895 38.7838 77.6895 38.6318V23.4511C77.6895 19.1572 75.894 16.9817 72.3696 16.9817C68.5792 16.9817 66.2232 19.5657 66.2232 23.7266V38.6318C66.2232 38.7743 66.1092 38.8978 65.9572 38.8978H60.3143C60.1718 38.8978 60.0483 38.7838 60.0483 38.6318V23.4511C60.0483 19.1572 58.2244 16.9817 54.6334 16.9817C51.0425 16.9817 48.5251 19.5657 48.5251 23.7266V38.6318C48.5251 38.7743 48.4111 38.8978 48.2591 38.8978H42.6162C42.4737 38.8978 42.3502 38.7838 42.3502 38.6318V12.3933C42.3502 12.2508 42.4642 12.1273 42.6162 12.1273H45.5706C45.7036 12.1273 45.8176 12.2033 45.8746 12.3173L47.8316 16.4307C48.2496 15.4333 50.3395 11.3863 56.5524 11.3863C60.5898 11.3863 63.5063 13.1343 65.0167 16.4497C66.7742 13.1818 70.0801 11.3863 74.3361 11.3863C80.5584 11.3863 83.8549 15.3953 83.8549 22.9761L83.8644 22.9856ZM38.6642 20.2877C38.6642 30.5 30.0099 39.6293 19.3226 39.6293C13.2522 39.6293 7.84685 36.6844 4.30342 32.2669L7.29586 29.4835L3.74293 31.5355C3.10644 30.6615 2.53645 29.74 2.05196 28.771L6.97286 25.9306L1.50097 27.6025C1.12098 26.719 0.816984 25.8071 0.569989 24.8666L7.48585 22.7481C8.62583 28.239 13.4897 32.3714 19.3226 32.3714C26.001 32.3714 31.4064 26.9565 31.4064 20.2877C31.4064 13.6188 25.9915 8.2039 19.3226 8.2039C15.7982 8.2039 12.6253 9.71438 10.4213 12.1178L5.63339 6.80743C9.13882 3.2355 13.9742 0.946045 19.3226 0.946045C30.0004 0.946045 38.6642 10.0754 38.6642 20.2877ZM7.23886 20.2877C7.23886 20.2877 7.23886 20.2687 7.23886 20.2592L0 20.7627C0.0189996 21.5986 0.0949981 22.4251 0.227996 23.2326L7.48585 22.7291C7.32436 21.9406 7.23886 21.1237 7.23886 20.2877ZM7.50485 17.7702L0.360993 16.6397C0.218496 17.3332 0.123498 18.0362 0.0569989 18.7487L7.24836 19.8887C7.26736 19.1667 7.35286 18.4637 7.50485 17.7702ZM8.27434 15.3953L1.62447 12.7068C1.38697 13.2483 1.16848 13.7993 0.978481 14.3598L7.67585 17.0672C7.83735 16.4877 8.03684 15.9368 8.27434 15.3953ZM9.51882 13.2293L3.67643 9.13489C3.40093 9.51488 3.13494 9.91387 2.88794 10.3129L8.75883 14.4263C8.98683 14.0083 9.24332 13.6093 9.51882 13.2293ZM38.6642 20.2877C38.6642 30.5 30.0099 39.6293 19.3226 39.6293C13.2522 39.6293 7.84685 36.6844 4.30342 32.2669L7.29586 29.4835L3.74293 31.5355C3.10644 30.6615 2.53645 29.74 2.05196 28.771L6.97286 25.9306L1.50097 27.6025C1.12098 26.719 0.816984 25.8071 0.569989 24.8666L7.48585 22.7481C8.62583 28.239 13.4897 32.3714 19.3226 32.3714C26.001 32.3714 31.4064 26.9565 31.4064 20.2877C31.4064 13.6188 25.9915 8.2039 19.3226 8.2039C15.7982 8.2039 12.6253 9.71438 10.4213 12.1178L5.63339 6.80743C9.13882 3.2355 13.9742 0.946045 19.3226 0.946045C30.0004 0.946045 38.6642 10.0754 38.6642 20.2877ZM7.23886 20.2877C7.23886 20.2877 7.23886 20.2687 7.23886 20.2592L0 20.7627C0.0189996 21.5986 0.0949981 22.4251 0.227996 23.2326L7.48585 22.7291C7.32436 21.9406 7.23886 21.1237 7.23886 20.2877ZM7.50485 17.7702L0.360993 16.6397C0.218496 17.3332 0.123498 18.0362 0.0569989 18.7487L7.24836 19.8887C7.26736 19.1667 7.35286 18.4637 7.50485 17.7702ZM8.27434 15.3953L1.62447 12.7068C1.38697 13.2483 1.16848 13.7993 0.978481 14.3598L7.67585 17.0672C7.83735 16.4877 8.03684 15.9368 8.27434 15.3953ZM9.51882 13.2293L3.67643 9.13489C3.40093 9.51488 3.13494 9.91387 2.88794 10.3129L8.75883 14.4263C8.98683 14.0083 9.24332 13.6093 9.51882 13.2293Z" fill="white"/>
<path d="M326.251 25.456H339.124C337.452 30.8424 332.379 34.5854 326.726 34.5854C319.573 34.5854 313.75 28.762 313.75 21.6086C313.75 14.4552 319.573 8.63186 326.726 8.63186C330.327 8.63186 333.794 10.1423 336.245 12.7928L336.578 13.1443L342.354 8.07137L342.012 7.69138C338.098 3.39746 332.531 0.937012 326.726 0.937012C315.327 0.937012 306.055 10.2088 306.055 21.5991C306.055 32.9894 315.327 42.2707 326.726 42.2707C338.126 42.2707 347.389 32.9989 347.389 21.5991V17.7517H326.251V25.456Z" fill="white"/>
<path d="M290.751 40.4088V40.7033H299.082L299.12 2.74205V2.43806H290.713L290.751 40.4088Z" fill="white"/>
<path d="M353.582 2.43806L353.62 40.4088V40.7033H361.961L361.999 2.74205V2.43806H353.582Z" fill="white"/>
<path d="M263.22 24.8386L250.804 2.43806H241.285L263.239 42.2708L285.098 2.43806H275.589L263.22 24.8386Z" fill="white"/>
<path d="M341.632 48.2558C340.929 48.2558 340.359 48.8068 340.359 49.5003C340.359 49.8328 340.482 50.1083 340.691 50.3173H342.572C342.781 50.1083 342.905 49.8328 342.905 49.5003C342.905 48.7973 342.325 48.2558 341.632 48.2558ZM332.664 57.4897H335.219V55.6087H331.752L332.664 57.4897ZM361.999 60.8336L358.019 56.3307L361.572 52.2838H359.349L356.157 56.0552V48.4268L354.276 49.3673V60.3396C354.276 60.6151 354.485 60.8241 354.732 60.8241H356.157V56.5682L359.681 60.8241H361.99L361.999 60.8336ZM342.572 60.8336V52.2933H340.691V60.3776C340.691 60.6246 340.9 60.8336 341.147 60.8336H342.572ZM326.005 52.1413C324.39 52.1413 322.689 52.9962 321.844 54.2407V63.6075C321.844 63.8545 322.053 64.0635 322.3 64.0635H323.725V55.0007C324.181 54.3357 325.026 53.9082 325.976 53.9082C327.429 53.9082 328.503 55.0007 328.503 56.5492C328.503 58.0976 327.439 59.2281 325.976 59.2281H324.637V60.8431H326.005C328.531 60.8431 330.384 59.0476 330.384 56.5587C330.384 54.0697 328.503 52.1508 326.005 52.1508M317.559 57.9741V53.9652H319.991V52.2933H317.559V49.7093L315.678 50.6498V58.3731C315.678 59.9501 316.619 60.8336 318.291 60.8336H320.723V59.2186H318.775C317.863 59.2186 317.559 58.8861 317.559 57.9741ZM348.377 52.0463C346.857 52.0463 345.28 52.8347 344.482 53.9937V60.3776C344.482 60.6246 344.691 60.8336 344.938 60.8336H346.363V54.7537C346.819 54.1742 347.55 53.8132 348.367 53.8132C349.678 53.8132 350.619 54.8487 350.619 56.2167V60.8336H352.471V56.1502C352.471 53.8132 350.704 52.0463 348.367 52.0463M336.891 60.3776C336.891 60.6246 337.1 60.8336 337.347 60.8336H338.772V48.4363L336.891 49.3768V60.3776Z" fill="white"/>
<path d="M295.643 52.1605C294.522 52.0465 293.477 52.3695 292.651 52.968V49.7096H290.751V60.8338H292.651V60.0074C293.363 60.5298 294.247 60.8338 295.197 60.8338C297.762 60.8338 299.804 58.6204 299.519 55.9984C299.301 53.9845 297.657 52.36 295.643 52.151V52.1605ZM295.197 59.0764C293.772 59.0764 292.613 57.9174 292.613 56.4924C292.613 55.0675 293.772 53.9085 295.197 53.9085C296.622 53.9085 297.781 55.0675 297.781 56.4924C297.781 57.9174 296.622 59.0764 295.197 59.0764Z" fill="white"/>
<path d="M306.634 52.1412L303.984 58.3351L301.457 52.1412H299.396L302.929 60.805L302.53 61.7455C302.435 61.964 302.217 62.1065 301.979 62.1065H300.441V64.016H301.979C302.986 64.016 303.889 63.4175 304.288 62.496L308.715 52.1412H306.634Z" fill="white"/>
<path d="M209.576 0.946045H207.676V64.0533H209.576V0.946045Z" fill="white"/>
</g>
<defs>
<clipPath id="clip0_202_5120">
<rect width="362" height="63.1259" fill="white" transform="translate(0 0.937012)"/>
</clipPath>
</defs>
</svg>
