<svg width="49" height="48" viewBox="0 0 49 48" fill="none" xmlns="http://www.w3.org/2000/svg">
<path d="M7.75016 37.9199V9.32242H9.90266L6.62516 6.04492L3.34766 9.32242H5.50016V40.1699H25.7952C25.5102 39.4499 25.3077 38.6999 25.1727 37.9199H7.75016Z" fill="#00A870"/>
<path d="M36.6479 10.0576L26.7104 22.7026L19.1879 16.4176L11.0879 27.2176L12.8879 28.5676L19.5629 19.6651L27.0404 25.9126L38.4179 11.4451L36.6479 10.0576Z" fill="#00A870"/>
<path d="M36.4975 26.7373C31.39 26.7373 27.25 30.8773 27.25 35.9848C27.25 36.6448 27.325 37.2973 27.4525 37.9198C27.625 38.7148 27.895 39.4648 28.255 40.1698C29.785 43.1773 32.8975 45.2398 36.4975 45.2398C41.605 45.2398 45.745 41.0998 45.745 35.9923C45.745 30.8848 41.605 26.7448 36.4975 26.7448V26.7373ZM40.8475 41.4598C39.655 42.4123 38.14 42.9898 36.4975 42.9898C34.21 42.9898 32.1775 41.8798 30.9025 40.1698C30.4 39.5023 30.0175 38.7448 29.7775 37.9198C29.5975 37.3048 29.5 36.6598 29.5 35.9848C29.5 32.1223 32.6425 28.9873 36.4975 28.9873C40.3525 28.9873 43.495 32.1298 43.495 35.9848C43.495 36.7198 43.3825 37.4248 43.1725 38.0848C42.745 39.4273 41.9275 40.5973 40.8475 41.4523V41.4598Z" fill="#00A870"/>
<path d="M37.2476 31.6499H34.9976V37.6424H40.8476H40.9901V35.9024V35.3924H37.2476V31.6499Z" fill="#00A870"/>
</svg>
