<svg width="135" height="50" viewBox="0 0 135 50" fill="none" xmlns="http://www.w3.org/2000/svg">
<g clip-path="url(#clip0_105_2429)">
<path d="M10.8665 43.5171H45.9409V44.2173H10.8665V43.5171ZM90.2394 43.5171H125.359V44.2173H90.2394V43.5171Z" fill="white"/>
<path d="M134.943 6.74263C134.695 6.5845 134.38 6.51674 134.065 6.56191C131.231 6.65227 128.441 7.12663 125.741 7.985C123.019 8.86596 120.724 10.6956 119.239 13.1352C118.339 14.8971 117.867 16.8624 117.844 18.8502C117.844 19.4375 117.844 20.0474 117.844 20.6573C117.912 21.3123 118.002 21.9674 118.137 22.5999C118.249 22.9613 118.249 23.3453 118.137 23.7293C117.619 24.407 116.719 24.7006 115.909 24.4748C115.144 24.3392 114.402 24.1811 113.682 23.9778C113.03 23.7293 112.377 23.4583 111.747 23.1646C111.747 23.1646 112.265 22.3062 112.49 21.8093C114.155 18.2629 114.717 16.6139 114.559 13.971C114.559 12.8642 113.907 11.8703 112.917 11.4185C111.927 11.2604 110.937 11.7121 110.375 12.5479C108.058 15.1682 106.798 21.0413 109.092 23.3227L109.745 23.9778C109.632 24.6103 108.553 25.3105 107.923 25.4235C106.798 25.5816 105.695 24.294 105.043 23.5034C104.368 22.6225 103.94 21.5834 103.805 20.4991C103.131 15.3715 103.94 11.1926 104.66 5.92943C104.66 5.86166 109.655 5.92943 110.105 5.86166L115.504 5.7939H119.757C119.982 5.81649 120.206 5.77131 120.409 5.70354C120.724 5.56801 120.949 5.09365 120.634 4.82259C120.454 4.68705 120.206 4.61929 119.982 4.61929C118.227 4.50634 116.449 4.61929 114.672 4.61929C112.895 4.61929 111.005 4.61929 109.16 4.61929C107.675 4.52893 106.168 4.55152 104.683 4.68705C104.84 3.42208 104.885 2.15712 104.863 0.869562C104.863 0.530731 104.773 0.101545 104.435 0.0111904C104.098 -0.0791645 103.76 0.395198 103.648 0.801795C103.333 1.97641 103.108 3.15102 102.951 4.34822C102.951 4.34822 100.498 4.41599 100.273 4.43857L97.5285 4.55152L92.1965 4.84517C91.634 4.86776 91.0941 4.95812 90.5766 5.13883C90.3967 5.20659 90.1717 5.34212 90.1492 5.54542C90.1267 5.74872 90.5091 6.08755 90.7791 6.13273C91.1616 6.15532 91.5216 6.11014 91.904 6.04237C92.8039 5.95202 93.7039 5.88425 94.6263 5.83908C96.4261 5.74872 98.2709 5.70354 100.071 5.74872C100.318 5.74872 102.861 5.74872 102.861 5.92943C102.501 8.70784 102.253 11.8025 101.848 15.9588C101.691 17.6078 101.241 19.2116 100.521 20.7024C100.138 21.4705 99.6883 22.1933 99.1259 22.871C98.9009 23.142 97.7985 24.6781 97.371 24.3392C96.9436 24.0004 97.326 23.142 97.371 22.7806C97.4835 21.9222 97.5285 21.0413 97.551 20.1603C97.461 18.8953 97.1011 17.653 96.5386 16.5009C95.9537 15.123 94.6038 13.4966 94.4688 12.0058C94.5363 11.3281 94.5363 10.6505 94.4688 9.97281C94.3338 9.56621 93.9063 9.36291 93.5239 9.47586H93.5014C92.8264 9.65657 92.9614 10.8312 93.0739 11.5314C93.2764 13.6322 92.7814 15.7555 91.7015 17.5626C91.2966 18.3306 90.8466 19.0761 90.3742 19.7989C89.9692 20.4766 89.5192 21.1542 89.0468 21.7867C88.5518 22.4644 87.9669 23.0968 87.3144 23.6164C86.347 24.3392 85.0871 22.7354 85.0871 22.7354C84.3672 21.9448 84.4572 21.5608 84.4572 21.5608L85.7846 19.2342C86.9995 17.2915 87.9444 15.2134 88.5743 13.0223C88.8893 12.2091 88.8443 11.3055 88.4618 10.5375C88.1918 10.018 87.6744 9.65657 87.0669 9.56621C86.302 9.56621 85.7396 10.3116 85.3571 10.8764C83.4898 13.3611 82.4999 16.388 82.5448 19.5052C82.5448 19.573 82.5448 19.6182 82.5448 19.686C82.5673 19.9796 82.6123 20.2507 82.6573 20.5217C82.7473 20.9057 82.9048 21.2898 83.0848 21.6512C82.3199 22.6903 81.4874 23.6842 80.5875 24.6103C79.9351 25.288 78.8327 25.3105 78.1577 24.6555C78.0902 24.5877 78.0228 24.4973 77.9553 24.4296C76.1104 22.1933 76.1779 19.1212 76.3354 16.4106C76.3354 15.4393 76.4254 14.468 76.4704 13.4741C76.4704 12.9997 76.4704 12.5027 76.4704 12.0058C76.4704 11.5314 76.5829 11.1474 76.2004 10.9441C76.0879 10.8989 75.8404 10.9441 75.7055 11.1022C75.3005 11.554 75.008 12.0961 74.8055 12.6609C73.9281 14.5583 73.0957 16.4784 72.2183 18.3758C72.1283 18.5791 71.9933 18.8276 71.7458 18.8276C71.0034 18.8276 71.0934 17.54 71.1159 17.0882C71.2059 15.3263 71.4758 13.587 71.7233 11.8251C71.9483 10.0858 72.1958 8.21089 72.3983 6.40379C72.5782 4.82259 72.7582 3.26396 72.9157 1.68275C72.9157 1.36651 72.9157 0.959916 72.5782 0.914739C72.2408 0.89215 72.1733 1.14062 72.1058 1.3891C71.8583 2.1797 71.6783 2.9929 71.5883 3.80609C70.8459 9.06926 69.316 14.1743 67.0437 18.9857C66.2788 20.6573 65.3789 22.2385 64.299 23.7067C63.9615 24.2263 63.5115 24.6555 62.9941 25.0169C62.4766 25.3557 61.8017 25.3783 61.2393 25.1072C60.7668 24.791 60.4293 24.3166 60.2943 23.7745C59.1244 20.5669 59.5744 16.9753 61.5317 14.1743C61.8917 13.6548 62.5891 13.1352 63.0616 13.5418C63.3316 13.7677 63.3766 14.2421 63.714 14.3776C64.0515 14.5131 64.5465 14.0162 64.5015 13.5644C64.254 12.5705 63.2641 11.9606 62.2967 12.2091C62.2292 12.2317 62.1617 12.2543 62.0942 12.2769C61.1268 12.6835 60.3393 13.4289 59.8669 14.3776C58.0895 17.2464 57.0321 20.5217 55.4798 23.5034C55.2548 23.91 54.8948 24.407 54.4449 24.2715C53.9949 24.1359 53.9274 23.7519 53.8149 23.3905C52.9375 20.0022 52.3525 16.5687 52.1051 13.0675C52.1051 12.706 52.0151 12.3672 51.8576 12.051C51.6776 11.7347 51.2726 11.6218 50.9577 11.8025C50.8227 11.9154 50.7102 12.051 50.6652 12.2317C49.9903 13.7677 49.3603 15.3037 48.7979 16.885C48.2354 18.4436 47.583 21.109 46.908 22.4869C46.8405 22.6677 46.773 21.7415 46.6831 20.341C46.6831 19.9344 46.7056 19.5278 46.7505 19.0986C46.818 18.3306 46.863 17.54 46.8855 16.7494C46.953 15.2134 46.9755 13.6548 46.8855 12.1187C46.908 11.9606 46.863 11.8025 46.7505 11.667C46.5931 11.5314 46.3456 11.5314 46.1881 11.667C46.0531 11.8251 45.9406 12.0284 45.9181 12.2543C44.6807 15.9814 43.4658 19.7311 42.2509 23.4583C42.1835 23.7293 42.026 23.9778 41.801 24.1359C41.5535 24.2263 41.2835 24.1585 41.1035 24.0004C40.9236 23.8197 40.7886 23.6164 40.6986 23.3679C40.0461 21.6512 39.7987 19.8215 39.9786 17.9918C40.0911 16.1847 40.4061 14.355 40.4061 12.5253C40.4286 12.322 40.3611 12.0961 40.2486 11.938C40.0461 11.7347 39.6862 11.8251 39.3937 11.8025C38.5163 11.7121 38.2013 10.5149 37.3914 10.1761C36.604 9.9954 35.794 10.2891 35.3216 10.9441C34.5116 11.8477 33.9042 12.9093 33.4992 14.0614C32.7793 16.0943 32.3968 18.2177 32.3743 20.3862C32.3743 22.2611 32.4643 24.791 33.5892 26.3948C33.6792 26.5529 33.8142 26.6884 33.9267 26.8014C34.6241 27.4565 35.704 27.4339 36.3565 26.7336C36.4465 26.6433 36.514 26.5529 36.5815 26.44C37.4139 25.3783 37.7064 23.9552 38.2913 22.7806C38.3813 22.5999 38.5388 22.3966 38.7413 22.3966C38.9212 22.4192 39.0787 22.5321 39.1462 22.6903C39.4612 23.3679 39.7312 24.0456 39.9562 24.7684C40.2486 25.4461 40.9236 26.1011 41.6435 25.8978C42.6784 25.6268 43.0159 24.294 43.3309 23.4131C43.5783 22.8032 43.8258 22.1933 44.0283 21.5834C44.1858 21.0639 44.3883 20.5443 44.6132 20.0474C44.8157 19.6182 45.0857 19.5504 45.1532 20.0474C45.3782 21.6286 45.3332 23.2098 45.4682 24.791C45.5132 25.4009 45.6256 26.2819 46.1656 26.6207C46.7055 26.9821 46.863 26.3948 46.998 26.0334C47.1105 25.672 47.2455 25.2428 47.3805 24.8362L48.1229 22.4644C48.6179 20.8154 49.1803 19.1664 49.5628 17.4723C49.6753 16.9979 50.1252 14.852 51.0027 15.3489C51.2051 15.5296 51.3401 15.7781 51.3401 16.0492C51.7901 19.1212 51.7001 22.4418 53.4999 25.0169C53.8149 25.4687 54.3099 25.943 54.8723 25.8527C55.2773 25.7397 55.6148 25.4461 55.7947 25.0847C56.5147 23.9552 56.8296 22.5773 57.5496 21.4253C57.6171 21.2898 57.7071 21.1768 57.8421 21.109C58.292 20.9057 58.652 21.5382 58.742 22.0126C58.877 23.0291 59.1694 24.0004 59.6194 24.9265C60.0919 25.8527 61.0368 26.4626 62.0717 26.4852C62.8366 26.3948 63.534 26.056 64.074 25.4913C66.3013 23.4583 67.3137 20.4766 68.6411 17.8111C68.9786 17.1108 69.361 16.4558 69.766 15.8007C69.811 18.5339 69.991 21.2898 70.3284 24.0004C70.3284 24.2037 70.4184 24.5425 70.6434 24.6103C70.8684 24.6555 71.1609 24.1811 71.2284 23.9552C71.8133 22.1933 72.5332 20.4766 73.2532 18.7598C73.5232 18.1047 73.7706 17.4497 74.0856 16.8172C74.1756 16.6365 74.4006 16.0943 74.6706 16.0943C75.098 16.0943 75.1205 17.1334 75.143 17.4271C75.2105 18.0596 75.233 18.7146 75.2555 19.3471C75.233 21.222 75.7055 23.0517 76.6504 24.6555C77.3703 26.1011 79.1252 26.6659 80.5425 25.943C80.745 25.8301 80.925 25.7171 81.105 25.559C81.8024 24.9943 82.4324 24.3166 82.9723 23.5938C83.6923 22.758 83.6922 22.9839 83.6922 22.9839C83.6922 22.9839 85.6721 25.1298 86.5945 25.175C87.7194 25.175 88.8218 23.8423 89.3842 23.0968C91.0041 20.9735 92.3765 18.6695 93.4564 16.2299C93.9738 15.1004 93.9063 14.4002 94.4013 14.9875C96.3136 17.1108 96.9886 20.1151 96.1561 22.8484C95.9762 23.4131 95.4362 24.0456 94.8962 23.7745C94.3788 23.5034 94.3563 22.3514 93.7713 22.4418C93.4339 22.487 93.2989 22.9161 93.3214 23.255C93.5464 24.7006 94.7613 25.7623 96.2236 25.7849C97.641 25.7397 98.9909 25.1298 99.9358 24.0682C100.858 23.0291 101.691 21.8996 102.433 20.7024C102.681 22.0126 103.176 23.255 103.94 24.3392C104.795 25.4687 106.168 26.6433 107.675 26.4174C108.89 26.2593 110.645 25.4461 111.117 24.2263C111.95 24.6555 112.805 24.9943 113.727 25.1976C115.099 25.5364 116.517 25.6268 117.912 25.4461C118.294 25.4009 118.654 25.288 118.969 25.1072C120.004 24.4296 119.419 23.0065 119.284 22.0352C119.104 20.7476 119.037 19.4601 119.104 18.1725C119.172 16.3202 119.734 14.5131 120.701 12.9319C122.141 10.8989 124.234 9.43068 126.641 8.75302C129.003 8.07536 131.455 7.73653 133.908 7.71394C134.223 7.73653 134.515 7.66876 134.785 7.53323C135.055 7.3977 135.19 7.05887 135.1 6.76521C135.078 6.69745 135.033 6.65227 134.988 6.60709M38.4263 19.7311C38.1788 20.838 37.8413 21.9448 37.4139 23.0065C37.0539 24.0456 36.5365 25.0169 35.839 25.8978C35.704 26.056 35.5015 26.1463 35.2991 26.1463C35.0066 26.1463 34.4891 25.7849 34.1067 25.1072C33.4317 23.5712 33.1843 21.8771 33.3642 20.2055C33.5442 18.3984 33.9267 16.6139 34.4891 14.8746C34.8041 14.0162 35.9515 10.9667 37.3464 11.8025C38.4713 12.435 38.6963 14.1065 38.7863 15.236C38.8763 16.7494 38.7638 18.2629 38.4263 19.7311ZM83.7597 20.0248C83.3098 19.9344 83.4673 18.7372 83.4898 18.4436C83.5798 17.0657 83.9172 15.7103 84.4797 14.468C84.9071 13.2256 85.6046 12.0961 86.5495 11.1926C86.7745 10.9667 87.1569 10.9667 87.4044 11.1926C87.4494 11.2378 87.4944 11.283 87.5169 11.3281C87.7644 11.8477 87.7869 12.435 87.5844 12.9771C87.4494 13.5644 87.2919 14.1517 87.1119 14.7164C86.6845 15.9136 86.167 17.0883 85.5146 18.1725C85.1996 18.692 84.5247 20.1829 83.7597 20.0248ZM110.915 22.5999C109.902 21.99 109.227 20.9509 109.092 19.7537C109.002 18.5113 109.205 17.269 109.655 16.1169C109.97 14.9423 110.622 13.8581 111.522 13.0449C111.702 12.9093 111.905 12.7964 112.13 12.7512C114.312 12.3446 113.255 16.4106 113.052 17.3819C112.85 18.3532 112.557 19.1664 112.265 20.0474C112.017 20.9283 111.635 21.7641 111.14 22.5547C111.117 22.5999 111.072 22.6225 111.027 22.6225H110.96M25.3775 4.89035C24.41 6.96851 23.8026 9.1822 23.5551 11.4637C22.6102 17.0657 22.0028 22.7354 21.7103 28.4052C21.7103 28.6763 21.6653 28.9699 21.5528 29.2184C21.4628 29.512 21.1478 29.6927 20.8554 29.625C20.6304 29.5572 20.4504 29.3539 20.4504 29.1054C20.2254 28.2471 19.9329 27.4113 19.753 26.5529C19.3705 24.8136 19.0105 23.0517 18.718 21.2898C18.4256 19.5278 18.2681 17.924 18.0431 16.2751C17.8181 14.6261 17.6381 13.2256 17.4357 11.7121C17.2782 10.3568 17.1432 9.0015 16.9857 7.64617C16.9182 7.10404 16.8282 6.5845 16.6932 6.06496C16.6932 5.92943 16.4907 5.68095 16.4008 5.70354C16.2208 5.74872 16.0633 5.86166 15.9958 6.01978C15.7258 6.69745 15.5233 7.3977 15.3433 8.09795C14.9384 10.1309 14.4884 12.1865 14.2184 14.2421C13.881 16.4784 13.701 18.7372 13.476 20.9735C13.206 23.8197 12.9811 26.6659 12.7786 29.5346C12.7786 29.7379 12.7336 29.9412 12.6436 30.1219C12.5311 30.3252 12.3061 30.4156 12.1036 30.3252C11.9462 30.2123 11.8562 30.0542 11.8337 29.8735C11.2712 27.5242 11.5637 25.0169 10.7763 22.7128C10.3938 21.5834 9.65136 22.4644 9.1789 23.0291C8.70644 23.7971 8.09899 24.4522 7.40156 24.9943C6.59163 25.4461 5.62422 25.559 4.7243 25.2654C3.82438 24.9943 3.01445 24.4973 2.36201 23.7971C0.854641 22.2159 0.0447126 20.07 0.134705 17.8789C0.112207 17.653 0.1797 17.4497 0.269692 17.2464C0.382182 17.0431 0.62966 16.9753 0.832142 17.0882C1.01213 17.2012 1.03462 17.4271 1.05712 17.653C1.07962 19.3019 1.52958 20.9283 2.36201 22.374C3.23943 23.8423 4.94928 24.5651 6.61413 24.1359C7.76152 23.5938 8.66144 22.5773 9.06641 21.3575C10.1913 18.5339 10.7313 15.507 10.6638 12.4576C10.7313 10.2213 10.6638 7.96242 10.8662 5.72613C10.9337 4.86776 10.9337 0.914739 12.3061 0.869562C12.7111 0.869562 12.8686 1.43428 12.8686 1.86346C12.8686 4.55152 12.7111 7.23958 12.4636 9.90504C12.2161 12.5705 11.7437 14.9875 11.6312 17.54C11.5412 18.1951 11.6537 18.8502 11.9462 19.4149C12.4636 19.9796 12.5536 18.8728 12.6211 18.421C12.9586 16.1847 13.206 13.9258 13.611 11.6896C14.061 8.7982 14.7809 5.95202 15.7483 3.1962C15.8383 2.94772 15.9508 2.72184 16.0858 2.49595C16.5357 1.90864 17.2107 1.97641 17.3907 2.67666C17.6156 3.33173 17.7731 4.00939 17.8406 4.70964C18.1556 6.94592 18.4256 9.20479 18.6955 11.4411C18.9205 13.4063 19.1005 15.3941 19.348 17.3819C19.5055 18.5113 19.663 19.6182 19.8204 20.7476C19.8429 21.7189 20.1129 22.6677 20.6079 23.5034C20.9228 23.0517 21.1028 22.5095 21.1253 21.9448C21.5753 18.7824 22.0253 15.62 22.4752 12.4576C22.8352 8.84337 23.6451 5.29695 24.8825 1.88605C25.0625 1.41169 25.4224 0.869561 25.9174 0.914739C26.4124 0.959916 26.6598 1.70534 26.7048 2.29265C27.3348 13.09 27.8747 23.91 29.7421 34.5719C29.967 36.1531 30.372 37.7117 30.957 39.18C31.1144 39.564 31.2719 40.1061 30.957 40.3772C30.687 40.5579 30.3045 40.4902 30.102 40.2417C29.8995 39.9932 29.7871 39.6996 29.7196 39.3833C26.8623 28.089 26.5248 16.3202 25.4674 4.70964C25.4449 4.75482 25.4224 4.77741 25.4224 4.82259M57.6621 42.862C57.6621 41.4389 57.5946 39.9932 57.5271 38.5701C57.7971 38.6153 58.067 38.6379 58.337 38.6379C58.607 38.6379 58.877 38.6153 59.1469 38.5701C59.1469 39.9932 59.0344 41.4389 59.0344 42.862V45.7081C59.0344 47.1312 59.1019 48.5769 59.1469 50C58.877 49.9322 58.607 49.9096 58.337 49.9096C58.067 49.9096 57.7971 49.9322 57.5271 50C57.5946 48.5769 57.6621 47.1312 57.6621 45.7081V44.2173C56.5372 44.2173 55.4348 44.2173 54.2199 44.2173C53.005 44.2173 51.9251 44.2173 50.7777 44.2173V45.7081C50.7777 47.1312 50.8452 48.5769 50.9127 50C50.6427 49.9548 50.3727 49.9096 50.1027 49.9096C49.8328 49.9096 49.5628 49.9322 49.2928 50C49.3603 48.5769 49.4278 47.1312 49.4278 45.7081V42.862C49.4278 41.4389 49.3603 39.9932 49.2928 38.5701C49.5628 38.6153 49.8328 38.6379 50.1027 38.6379C50.3727 38.6379 50.6427 38.6153 50.9127 38.5701C50.8452 39.9932 50.7777 41.4389 50.7777 42.862V43.4493H57.6621V42.862ZM66.3688 38.3668C67.9661 42.2069 70.4634 48.2155 71.3184 50C71.0259 49.9322 70.7334 49.9096 70.4409 49.9096C70.1485 49.9096 69.856 49.9322 69.5635 50C69.2485 48.8706 68.4386 47.0409 67.8762 45.5048C67.1562 45.5048 66.4363 45.5048 65.7164 45.5048H63.714C63.0391 47.199 62.4091 48.8706 62.1167 50C61.9142 49.9548 61.7117 49.9096 61.5092 49.9096C61.3067 49.9096 61.1043 49.9322 60.9018 50C62.6566 46.1147 64.3665 42.2747 66.0538 38.3668H66.3688ZM65.8288 40.6031L64.0515 44.8046H65.7838C66.3913 44.8046 67.0437 44.8046 67.6512 44.8046L65.8288 40.6031ZM73.2307 42.862C73.2307 41.4389 73.1632 39.9932 73.0957 38.5701C73.6356 38.6831 74.1756 38.6831 74.6931 38.5701C74.6256 39.9932 74.5581 41.4389 74.5581 42.862C74.5581 45.6404 74.5581 47.583 74.5581 49.2094C76.0654 49.232 77.5953 49.1642 79.1027 49.0061C78.9902 49.3223 78.9902 49.6838 79.1027 50C78.0902 49.9548 74.0406 49.9548 73.0282 50C73.0957 48.5769 73.1632 47.1312 73.1632 45.7081L73.2307 42.862ZM81.465 42.862C81.465 41.4389 81.3975 39.9932 81.33 38.5701C81.8699 38.6831 82.4099 38.6831 82.9498 38.5701C82.8823 39.9932 82.8148 41.4389 82.8148 42.862C82.8148 45.6404 82.8148 47.583 82.8148 49.2094C84.3222 49.232 85.8521 49.1642 87.3594 49.0061C87.2469 49.3223 87.2469 49.6838 87.3594 50C86.347 49.9548 82.3199 49.9548 81.285 50C81.3525 48.5769 81.42 47.1312 81.42 45.7081L81.465 42.862Z" fill="white"/>
</g>
<defs>
<clipPath id="clip0_105_2429">
<rect width="135" height="50" fill="white"/>
</clipPath>
</defs>
</svg>
